<?xml version="1.0" encoding="UTF-8"?>
<svg xmlns="http://www.w3.org/2000/svg"
     xmlns:xlink="http://www.w3.org/1999/xlink"
     xmlns:gadfly="http://www.gadflyjl.org/ns"
     version="1.2"
     width="152.4mm" height="76.2mm" viewBox="0 0 152.4 76.2"
     stroke="none"
     fill="#000000"
     stroke-width="0.3"
     font-size="3.88"
>
<g class="plotroot xscalable yscalable" id="fig-2e885718b33642399438dbbebddd8f7f-element-1">
  <g font-size="3.88" font-family="'PT Sans','Helvetica Neue','Helvetica',sans-serif" fill="#564A55" stroke="none" id="fig-2e885718b33642399438dbbebddd8f7f-element-2">
    <text x="83.85" y="68.2" text-anchor="middle">Time</text>
  </g>
  <g class="guide xlabels" font-size="2.82" font-family="'PT Sans Caption','Helvetica Neue','Helvetica',sans-serif" fill="#6C606B" id="fig-2e885718b33642399438dbbebddd8f7f-element-3">
    <text x="22.31" y="60.59" text-anchor="middle">0</text>
    <text x="34.61" y="60.59" text-anchor="middle">1</text>
    <text x="46.92" y="60.59" text-anchor="middle">2</text>
    <text x="59.23" y="60.59" text-anchor="middle">3</text>
    <text x="71.54" y="60.59" text-anchor="middle">4</text>
    <text x="83.85" y="60.59" text-anchor="middle">5</text>
    <text x="96.16" y="60.59" text-anchor="middle">6</text>
    <text x="108.47" y="60.59" text-anchor="middle">7</text>
    <text x="120.78" y="60.59" text-anchor="middle">8</text>
    <text x="133.09" y="60.59" text-anchor="middle">9</text>
    <text x="145.4" y="60.59" text-anchor="middle">10</text>
  </g>
  <g clip-path="url(#fig-2e885718b33642399438dbbebddd8f7f-element-5)" id="fig-2e885718b33642399438dbbebddd8f7f-element-4">
    <g pointer-events="visible" opacity="1" fill="none" stroke="none" class="guide background" id="fig-2e885718b33642399438dbbebddd8f7f-element-6">
      <rect x="20.31" y="5" width="127.09" height="51.91"/>
    </g>
    <g class="guide ygridlines xfixed" stroke-dasharray="0.5,0.5" stroke-width="0.2" stroke="#D0D0E0" id="fig-2e885718b33642399438dbbebddd8f7f-element-7">
      <path fill="none" d="M20.31,54.91 L 147.4 54.91"/>
      <path fill="none" d="M20.31,42.94 L 147.4 42.94"/>
      <path fill="none" d="M20.31,30.96 L 147.4 30.96"/>
      <path fill="none" d="M20.31,18.98 L 147.4 18.98"/>
      <path fill="none" d="M20.31,7 L 147.4 7"/>
    </g>
    <g class="guide xgridlines yfixed" stroke-dasharray="0.5,0.5" stroke-width="0.2" stroke="#D0D0E0" id="fig-2e885718b33642399438dbbebddd8f7f-element-8">
      <path fill="none" d="M22.31,5 L 22.31 56.91"/>
      <path fill="none" d="M34.61,5 L 34.61 56.91"/>
      <path fill="none" d="M46.92,5 L 46.92 56.91"/>
      <path fill="none" d="M59.23,5 L 59.23 56.91"/>
      <path fill="none" d="M71.54,5 L 71.54 56.91"/>
      <path fill="none" d="M83.85,5 L 83.85 56.91"/>
      <path fill="none" d="M96.16,5 L 96.16 56.91"/>
      <path fill="none" d="M108.47,5 L 108.47 56.91"/>
      <path fill="none" d="M120.78,5 L 120.78 56.91"/>
      <path fill="none" d="M133.09,5 L 133.09 56.91"/>
      <path fill="none" d="M145.4,5 L 145.4 56.91"/>
    </g>
    <g class="plotpanel" id="fig-2e885718b33642399438dbbebddd8f7f-element-9">
      <g class="geometry" id="fig-2e885718b33642399438dbbebddd8f7f-element-10">
        <g class="color_RGB{Float32}(0.0f0,0.74736935f0,1.0f0)" stroke="#FFFFFF" stroke-width="0.3" fill="#00BFFF" id="fig-2e885718b33642399438dbbebddd8f7f-element-11">
          <circle cx="22.31" cy="18.98" r="0.9"/>
          <circle cx="22.61" cy="19.13" r="0.9"/>
          <circle cx="22.92" cy="19.57" r="0.9"/>
          <circle cx="23.23" cy="20.28" r="0.9"/>
          <circle cx="23.54" cy="21.27" r="0.9"/>
          <circle cx="23.84" cy="22.49" r="0.9"/>
          <circle cx="24.15" cy="23.92" r="0.9"/>
          <circle cx="24.46" cy="25.52" r="0.9"/>
          <circle cx="24.77" cy="27.26" r="0.9"/>
          <circle cx="25.07" cy="29.08" r="0.9"/>
          <circle cx="25.38" cy="30.96" r="0.9"/>
          <circle cx="25.69" cy="32.83" r="0.9"/>
          <circle cx="26" cy="34.66" r="0.9"/>
          <circle cx="26.31" cy="36.4" r="0.9"/>
          <circle cx="26.61" cy="38" r="0.9"/>
          <circle cx="26.92" cy="39.43" r="0.9"/>
          <circle cx="27.23" cy="40.65" r="0.9"/>
          <circle cx="27.54" cy="41.63" r="0.9"/>
          <circle cx="27.84" cy="42.35" r="0.9"/>
          <circle cx="28.15" cy="42.79" r="0.9"/>
          <circle cx="28.46" cy="42.94" r="0.9"/>
          <circle cx="28.77" cy="42.79" r="0.9"/>
          <circle cx="29.08" cy="42.35" r="0.9"/>
          <circle cx="29.38" cy="41.63" r="0.9"/>
          <circle cx="29.69" cy="40.65" r="0.9"/>
          <circle cx="30" cy="39.43" r="0.9"/>
          <circle cx="30.31" cy="38" r="0.9"/>
          <circle cx="30.61" cy="36.4" r="0.9"/>
          <circle cx="30.92" cy="34.66" r="0.9"/>
          <circle cx="31.23" cy="32.83" r="0.9"/>
          <circle cx="31.54" cy="30.96" r="0.9"/>
          <circle cx="31.84" cy="29.08" r="0.9"/>
          <circle cx="32.15" cy="27.26" r="0.9"/>
          <circle cx="32.46" cy="25.52" r="0.9"/>
          <circle cx="32.77" cy="23.92" r="0.9"/>
          <circle cx="33.08" cy="22.49" r="0.9"/>
          <circle cx="33.38" cy="21.27" r="0.9"/>
          <circle cx="33.69" cy="20.28" r="0.9"/>
          <circle cx="34" cy="19.57" r="0.9"/>
          <circle cx="34.31" cy="19.13" r="0.9"/>
          <circle cx="34.61" cy="18.98" r="0.9"/>
          <circle cx="34.92" cy="19.13" r="0.9"/>
          <circle cx="35.23" cy="19.57" r="0.9"/>
          <circle cx="35.54" cy="20.28" r="0.9"/>
          <circle cx="35.85" cy="21.27" r="0.9"/>
          <circle cx="36.15" cy="22.49" r="0.9"/>
          <circle cx="36.46" cy="23.92" r="0.9"/>
          <circle cx="36.77" cy="25.52" r="0.9"/>
          <circle cx="37.08" cy="27.26" r="0.9"/>
          <circle cx="37.38" cy="29.08" r="0.9"/>
          <circle cx="37.69" cy="30.96" r="0.9"/>
          <circle cx="38" cy="32.83" r="0.9"/>
          <circle cx="38.31" cy="34.66" r="0.9"/>
          <circle cx="38.62" cy="36.4" r="0.9"/>
          <circle cx="38.92" cy="38" r="0.9"/>
          <circle cx="39.23" cy="39.43" r="0.9"/>
          <circle cx="39.54" cy="40.65" r="0.9"/>
          <circle cx="39.85" cy="41.63" r="0.9"/>
          <circle cx="40.15" cy="42.35" r="0.9"/>
          <circle cx="40.46" cy="42.79" r="0.9"/>
          <circle cx="40.77" cy="42.94" r="0.9"/>
          <circle cx="41.08" cy="42.79" r="0.9"/>
          <circle cx="41.38" cy="42.35" r="0.9"/>
          <circle cx="41.69" cy="41.63" r="0.9"/>
          <circle cx="42" cy="40.65" r="0.9"/>
          <circle cx="42.31" cy="39.43" r="0.9"/>
          <circle cx="42.62" cy="38" r="0.9"/>
          <circle cx="42.92" cy="36.4" r="0.9"/>
          <circle cx="43.23" cy="34.66" r="0.9"/>
          <circle cx="43.54" cy="32.83" r="0.9"/>
          <circle cx="43.85" cy="30.96" r="0.9"/>
          <circle cx="44.15" cy="29.08" r="0.9"/>
          <circle cx="44.46" cy="27.26" r="0.9"/>
          <circle cx="44.77" cy="25.52" r="0.9"/>
          <circle cx="45.08" cy="23.92" r="0.9"/>
          <circle cx="45.39" cy="22.49" r="0.9"/>
          <circle cx="45.69" cy="21.27" r="0.9"/>
          <circle cx="46" cy="20.28" r="0.9"/>
          <circle cx="46.31" cy="19.57" r="0.9"/>
          <circle cx="46.62" cy="19.13" r="0.9"/>
          <circle cx="46.92" cy="18.98" r="0.9"/>
          <circle cx="47.23" cy="19.13" r="0.9"/>
          <circle cx="47.54" cy="19.57" r="0.9"/>
          <circle cx="47.85" cy="20.28" r="0.9"/>
          <circle cx="48.15" cy="21.27" r="0.9"/>
          <circle cx="48.46" cy="22.49" r="0.9"/>
          <circle cx="48.77" cy="23.92" r="0.9"/>
          <circle cx="49.08" cy="25.52" r="0.9"/>
          <circle cx="49.39" cy="27.26" r="0.9"/>
          <circle cx="49.69" cy="29.08" r="0.9"/>
          <circle cx="50" cy="30.96" r="0.9"/>
          <circle cx="50.31" cy="32.83" r="0.9"/>
          <circle cx="50.62" cy="34.66" r="0.9"/>
          <circle cx="50.92" cy="36.4" r="0.9"/>
          <circle cx="51.23" cy="38" r="0.9"/>
          <circle cx="51.54" cy="39.43" r="0.9"/>
          <circle cx="51.85" cy="40.65" r="0.9"/>
          <circle cx="52.16" cy="41.63" r="0.9"/>
          <circle cx="52.46" cy="42.35" r="0.9"/>
          <circle cx="52.77" cy="42.79" r="0.9"/>
          <circle cx="53.08" cy="42.94" r="0.9"/>
          <circle cx="53.39" cy="42.79" r="0.9"/>
          <circle cx="53.69" cy="42.35" r="0.9"/>
          <circle cx="54" cy="41.63" r="0.9"/>
          <circle cx="54.31" cy="40.65" r="0.9"/>
          <circle cx="54.62" cy="39.43" r="0.9"/>
          <circle cx="54.93" cy="38" r="0.9"/>
          <circle cx="55.23" cy="36.4" r="0.9"/>
          <circle cx="55.54" cy="34.66" r="0.9"/>
          <circle cx="55.85" cy="32.83" r="0.9"/>
          <circle cx="56.16" cy="30.96" r="0.9"/>
          <circle cx="56.46" cy="29.08" r="0.9"/>
          <circle cx="56.77" cy="27.26" r="0.9"/>
          <circle cx="57.08" cy="25.52" r="0.9"/>
          <circle cx="57.39" cy="23.92" r="0.9"/>
          <circle cx="57.69" cy="22.49" r="0.9"/>
          <circle cx="58" cy="21.27" r="0.9"/>
          <circle cx="58.31" cy="20.28" r="0.9"/>
          <circle cx="58.62" cy="19.57" r="0.9"/>
          <circle cx="58.93" cy="19.13" r="0.9"/>
          <circle cx="59.23" cy="18.98" r="0.9"/>
          <circle cx="59.54" cy="19.13" r="0.9"/>
          <circle cx="59.85" cy="19.57" r="0.9"/>
          <circle cx="60.16" cy="20.28" r="0.9"/>
          <circle cx="60.46" cy="21.27" r="0.9"/>
          <circle cx="60.77" cy="22.49" r="0.9"/>
          <circle cx="61.08" cy="23.92" r="0.9"/>
          <circle cx="61.39" cy="25.52" r="0.9"/>
          <circle cx="61.7" cy="27.26" r="0.9"/>
          <circle cx="62" cy="29.08" r="0.9"/>
          <circle cx="62.31" cy="30.96" r="0.9"/>
          <circle cx="62.62" cy="32.83" r="0.9"/>
          <circle cx="62.93" cy="34.66" r="0.9"/>
          <circle cx="63.23" cy="36.4" r="0.9"/>
          <circle cx="63.54" cy="38" r="0.9"/>
          <circle cx="63.85" cy="39.43" r="0.9"/>
          <circle cx="64.16" cy="40.65" r="0.9"/>
          <circle cx="64.47" cy="41.63" r="0.9"/>
          <circle cx="64.77" cy="42.35" r="0.9"/>
          <circle cx="65.08" cy="42.79" r="0.9"/>
          <circle cx="65.39" cy="42.94" r="0.9"/>
          <circle cx="65.7" cy="42.79" r="0.9"/>
          <circle cx="66" cy="42.35" r="0.9"/>
          <circle cx="66.31" cy="41.63" r="0.9"/>
          <circle cx="66.62" cy="40.65" r="0.9"/>
          <circle cx="66.93" cy="39.43" r="0.9"/>
          <circle cx="67.23" cy="38" r="0.9"/>
          <circle cx="67.54" cy="36.4" r="0.9"/>
          <circle cx="67.85" cy="34.66" r="0.9"/>
          <circle cx="68.16" cy="32.83" r="0.9"/>
          <circle cx="68.47" cy="30.96" r="0.9"/>
          <circle cx="68.77" cy="29.08" r="0.9"/>
          <circle cx="69.08" cy="27.26" r="0.9"/>
          <circle cx="69.39" cy="25.52" r="0.9"/>
          <circle cx="69.7" cy="23.92" r="0.9"/>
          <circle cx="70" cy="22.49" r="0.9"/>
          <circle cx="70.31" cy="21.27" r="0.9"/>
          <circle cx="70.62" cy="20.28" r="0.9"/>
          <circle cx="70.93" cy="19.57" r="0.9"/>
          <circle cx="71.24" cy="19.13" r="0.9"/>
          <circle cx="71.54" cy="18.98" r="0.9"/>
          <circle cx="71.85" cy="19.13" r="0.9"/>
          <circle cx="72.16" cy="19.57" r="0.9"/>
          <circle cx="72.47" cy="20.28" r="0.9"/>
          <circle cx="72.77" cy="21.27" r="0.9"/>
          <circle cx="73.08" cy="22.49" r="0.9"/>
          <circle cx="73.39" cy="23.92" r="0.9"/>
          <circle cx="73.7" cy="25.52" r="0.9"/>
          <circle cx="74" cy="27.26" r="0.9"/>
          <circle cx="74.31" cy="29.08" r="0.9"/>
          <circle cx="74.62" cy="30.96" r="0.9"/>
          <circle cx="74.93" cy="32.83" r="0.9"/>
          <circle cx="75.24" cy="34.66" r="0.9"/>
          <circle cx="75.54" cy="36.4" r="0.9"/>
          <circle cx="75.85" cy="38" r="0.9"/>
          <circle cx="76.16" cy="39.43" r="0.9"/>
          <circle cx="76.47" cy="40.65" r="0.9"/>
          <circle cx="76.77" cy="41.63" r="0.9"/>
          <circle cx="77.08" cy="42.35" r="0.9"/>
          <circle cx="77.39" cy="42.79" r="0.9"/>
          <circle cx="77.7" cy="42.94" r="0.9"/>
          <circle cx="78.01" cy="42.79" r="0.9"/>
          <circle cx="78.31" cy="42.35" r="0.9"/>
          <circle cx="78.62" cy="41.63" r="0.9"/>
          <circle cx="78.93" cy="40.65" r="0.9"/>
          <circle cx="79.24" cy="39.43" r="0.9"/>
          <circle cx="79.54" cy="38" r="0.9"/>
          <circle cx="79.85" cy="36.4" r="0.9"/>
          <circle cx="80.16" cy="34.66" r="0.9"/>
          <circle cx="80.47" cy="32.83" r="0.9"/>
          <circle cx="80.78" cy="30.96" r="0.9"/>
          <circle cx="81.08" cy="29.08" r="0.9"/>
          <circle cx="81.39" cy="27.26" r="0.9"/>
          <circle cx="81.7" cy="25.52" r="0.9"/>
          <circle cx="82.01" cy="23.92" r="0.9"/>
          <circle cx="82.31" cy="22.49" r="0.9"/>
          <circle cx="82.62" cy="21.27" r="0.9"/>
          <circle cx="82.93" cy="20.28" r="0.9"/>
          <circle cx="83.24" cy="19.57" r="0.9"/>
          <circle cx="83.54" cy="19.13" r="0.9"/>
          <circle cx="83.85" cy="18.98" r="0.9"/>
          <circle cx="84.16" cy="19.13" r="0.9"/>
          <circle cx="84.47" cy="19.57" r="0.9"/>
          <circle cx="84.78" cy="20.28" r="0.9"/>
          <circle cx="85.08" cy="21.27" r="0.9"/>
          <circle cx="85.39" cy="22.49" r="0.9"/>
          <circle cx="85.7" cy="23.92" r="0.9"/>
          <circle cx="86.01" cy="25.52" r="0.9"/>
          <circle cx="86.31" cy="27.26" r="0.9"/>
          <circle cx="86.62" cy="29.08" r="0.9"/>
          <circle cx="86.93" cy="30.96" r="0.9"/>
          <circle cx="87.24" cy="32.83" r="0.9"/>
          <circle cx="87.55" cy="34.66" r="0.9"/>
          <circle cx="87.85" cy="36.4" r="0.9"/>
          <circle cx="88.16" cy="38" r="0.9"/>
          <circle cx="88.47" cy="39.43" r="0.9"/>
          <circle cx="88.78" cy="40.65" r="0.9"/>
          <circle cx="89.08" cy="41.63" r="0.9"/>
          <circle cx="89.39" cy="42.35" r="0.9"/>
          <circle cx="89.7" cy="42.79" r="0.9"/>
          <circle cx="90.01" cy="42.94" r="0.9"/>
          <circle cx="90.31" cy="42.79" r="0.9"/>
          <circle cx="90.62" cy="42.35" r="0.9"/>
          <circle cx="90.93" cy="41.63" r="0.9"/>
          <circle cx="91.24" cy="40.65" r="0.9"/>
          <circle cx="91.55" cy="39.43" r="0.9"/>
          <circle cx="91.85" cy="38" r="0.9"/>
          <circle cx="92.16" cy="36.4" r="0.9"/>
          <circle cx="92.47" cy="34.66" r="0.9"/>
          <circle cx="92.78" cy="32.83" r="0.9"/>
          <circle cx="93.08" cy="30.96" r="0.9"/>
          <circle cx="93.39" cy="29.08" r="0.9"/>
          <circle cx="93.7" cy="27.26" r="0.9"/>
          <circle cx="94.01" cy="25.52" r="0.9"/>
          <circle cx="94.32" cy="23.92" r="0.9"/>
          <circle cx="94.62" cy="22.49" r="0.9"/>
          <circle cx="94.93" cy="21.27" r="0.9"/>
          <circle cx="95.24" cy="20.28" r="0.9"/>
          <circle cx="95.55" cy="19.57" r="0.9"/>
          <circle cx="95.85" cy="19.13" r="0.9"/>
          <circle cx="96.16" cy="18.98" r="0.9"/>
          <circle cx="96.47" cy="19.13" r="0.9"/>
          <circle cx="96.78" cy="19.57" r="0.9"/>
          <circle cx="97.09" cy="20.28" r="0.9"/>
          <circle cx="97.39" cy="21.27" r="0.9"/>
          <circle cx="97.7" cy="22.49" r="0.9"/>
          <circle cx="98.01" cy="23.92" r="0.9"/>
          <circle cx="98.32" cy="25.52" r="0.9"/>
          <circle cx="98.62" cy="27.26" r="0.9"/>
          <circle cx="98.93" cy="29.08" r="0.9"/>
          <circle cx="99.24" cy="30.96" r="0.9"/>
          <circle cx="99.55" cy="32.83" r="0.9"/>
          <circle cx="99.85" cy="34.66" r="0.9"/>
          <circle cx="100.16" cy="36.4" r="0.9"/>
          <circle cx="100.47" cy="38" r="0.9"/>
          <circle cx="100.78" cy="39.43" r="0.9"/>
          <circle cx="101.09" cy="40.65" r="0.9"/>
          <circle cx="101.39" cy="41.63" r="0.9"/>
          <circle cx="101.7" cy="42.35" r="0.9"/>
          <circle cx="102.01" cy="42.79" r="0.9"/>
          <circle cx="102.32" cy="42.94" r="0.9"/>
          <circle cx="102.62" cy="42.79" r="0.9"/>
          <circle cx="102.93" cy="42.35" r="0.9"/>
          <circle cx="103.24" cy="41.63" r="0.9"/>
          <circle cx="103.55" cy="40.65" r="0.9"/>
          <circle cx="103.86" cy="39.43" r="0.9"/>
          <circle cx="104.16" cy="38" r="0.9"/>
          <circle cx="104.47" cy="36.4" r="0.9"/>
          <circle cx="104.78" cy="34.66" r="0.9"/>
          <circle cx="105.09" cy="32.83" r="0.9"/>
          <circle cx="105.39" cy="30.96" r="0.9"/>
          <circle cx="105.7" cy="29.08" r="0.9"/>
          <circle cx="106.01" cy="27.26" r="0.9"/>
          <circle cx="106.32" cy="25.52" r="0.9"/>
          <circle cx="106.63" cy="23.92" r="0.9"/>
          <circle cx="106.93" cy="22.49" r="0.9"/>
          <circle cx="107.24" cy="21.27" r="0.9"/>
          <circle cx="107.55" cy="20.28" r="0.9"/>
          <circle cx="107.86" cy="19.57" r="0.9"/>
          <circle cx="108.16" cy="19.13" r="0.9"/>
          <circle cx="108.47" cy="18.98" r="0.9"/>
          <circle cx="108.78" cy="19.13" r="0.9"/>
          <circle cx="109.09" cy="19.57" r="0.9"/>
          <circle cx="109.39" cy="20.28" r="0.9"/>
          <circle cx="109.7" cy="21.27" r="0.9"/>
          <circle cx="110.01" cy="22.49" r="0.9"/>
          <circle cx="110.32" cy="23.92" r="0.9"/>
          <circle cx="110.63" cy="25.52" r="0.9"/>
          <circle cx="110.93" cy="27.26" r="0.9"/>
          <circle cx="111.24" cy="29.08" r="0.9"/>
          <circle cx="111.55" cy="30.96" r="0.9"/>
          <circle cx="111.86" cy="32.83" r="0.9"/>
          <circle cx="112.16" cy="34.66" r="0.9"/>
          <circle cx="112.47" cy="36.4" r="0.9"/>
          <circle cx="112.78" cy="38" r="0.9"/>
          <circle cx="113.09" cy="39.43" r="0.9"/>
          <circle cx="113.4" cy="40.65" r="0.9"/>
          <circle cx="113.7" cy="41.63" r="0.9"/>
          <circle cx="114.01" cy="42.35" r="0.9"/>
          <circle cx="114.32" cy="42.79" r="0.9"/>
          <circle cx="114.63" cy="42.94" r="0.9"/>
          <circle cx="114.93" cy="42.79" r="0.9"/>
          <circle cx="115.24" cy="42.35" r="0.9"/>
          <circle cx="115.55" cy="41.63" r="0.9"/>
          <circle cx="115.86" cy="40.65" r="0.9"/>
          <circle cx="116.16" cy="39.43" r="0.9"/>
          <circle cx="116.47" cy="38" r="0.9"/>
          <circle cx="116.78" cy="36.4" r="0.9"/>
          <circle cx="117.09" cy="34.66" r="0.9"/>
          <circle cx="117.4" cy="32.83" r="0.9"/>
          <circle cx="117.7" cy="30.96" r="0.9"/>
          <circle cx="118.01" cy="29.08" r="0.9"/>
          <circle cx="118.32" cy="27.26" r="0.9"/>
          <circle cx="118.63" cy="25.52" r="0.9"/>
          <circle cx="118.93" cy="23.92" r="0.9"/>
          <circle cx="119.24" cy="22.49" r="0.9"/>
          <circle cx="119.55" cy="21.27" r="0.9"/>
          <circle cx="119.86" cy="20.28" r="0.9"/>
          <circle cx="120.17" cy="19.57" r="0.9"/>
          <circle cx="120.47" cy="19.13" r="0.9"/>
          <circle cx="120.78" cy="18.98" r="0.9"/>
          <circle cx="121.09" cy="19.13" r="0.9"/>
          <circle cx="121.4" cy="19.57" r="0.9"/>
          <circle cx="121.7" cy="20.28" r="0.9"/>
          <circle cx="122.01" cy="21.27" r="0.9"/>
          <circle cx="122.32" cy="22.49" r="0.9"/>
          <circle cx="122.63" cy="23.92" r="0.9"/>
          <circle cx="122.94" cy="25.52" r="0.9"/>
          <circle cx="123.24" cy="27.26" r="0.9"/>
          <circle cx="123.55" cy="29.08" r="0.9"/>
          <circle cx="123.86" cy="30.96" r="0.9"/>
          <circle cx="124.17" cy="32.83" r="0.9"/>
          <circle cx="124.47" cy="34.66" r="0.9"/>
          <circle cx="124.78" cy="36.4" r="0.9"/>
          <circle cx="125.09" cy="38" r="0.9"/>
          <circle cx="125.4" cy="39.43" r="0.9"/>
          <circle cx="125.7" cy="40.65" r="0.9"/>
          <circle cx="126.01" cy="41.63" r="0.9"/>
          <circle cx="126.32" cy="42.35" r="0.9"/>
          <circle cx="126.63" cy="42.79" r="0.9"/>
          <circle cx="126.94" cy="42.94" r="0.9"/>
          <circle cx="127.24" cy="42.79" r="0.9"/>
          <circle cx="127.55" cy="42.35" r="0.9"/>
          <circle cx="127.86" cy="41.63" r="0.9"/>
          <circle cx="128.17" cy="40.65" r="0.9"/>
          <circle cx="128.47" cy="39.43" r="0.9"/>
          <circle cx="128.78" cy="38" r="0.9"/>
          <circle cx="129.09" cy="36.4" r="0.9"/>
          <circle cx="129.4" cy="34.66" r="0.9"/>
          <circle cx="129.71" cy="32.83" r="0.9"/>
          <circle cx="130.01" cy="30.96" r="0.9"/>
          <circle cx="130.32" cy="29.08" r="0.9"/>
          <circle cx="130.63" cy="27.26" r="0.9"/>
          <circle cx="130.94" cy="25.52" r="0.9"/>
          <circle cx="131.24" cy="23.92" r="0.9"/>
          <circle cx="131.55" cy="22.49" r="0.9"/>
          <circle cx="131.86" cy="21.27" r="0.9"/>
          <circle cx="132.17" cy="20.28" r="0.9"/>
          <circle cx="132.48" cy="19.57" r="0.9"/>
          <circle cx="132.78" cy="19.13" r="0.9"/>
          <circle cx="133.09" cy="18.98" r="0.9"/>
          <circle cx="133.4" cy="19.13" r="0.9"/>
          <circle cx="133.71" cy="19.57" r="0.9"/>
          <circle cx="134.01" cy="20.28" r="0.9"/>
          <circle cx="134.32" cy="21.27" r="0.9"/>
          <circle cx="134.63" cy="22.49" r="0.9"/>
          <circle cx="134.94" cy="23.92" r="0.9"/>
          <circle cx="135.24" cy="25.52" r="0.9"/>
          <circle cx="135.55" cy="27.26" r="0.9"/>
          <circle cx="135.86" cy="29.08" r="0.9"/>
          <circle cx="136.17" cy="30.96" r="0.9"/>
          <circle cx="136.48" cy="32.83" r="0.9"/>
          <circle cx="136.78" cy="34.66" r="0.9"/>
          <circle cx="137.09" cy="36.4" r="0.9"/>
          <circle cx="137.4" cy="38" r="0.9"/>
          <circle cx="137.71" cy="39.43" r="0.9"/>
          <circle cx="138.01" cy="40.65" r="0.9"/>
          <circle cx="138.32" cy="41.63" r="0.9"/>
          <circle cx="138.63" cy="42.35" r="0.9"/>
          <circle cx="138.94" cy="42.79" r="0.9"/>
          <circle cx="139.25" cy="42.94" r="0.9"/>
          <circle cx="139.55" cy="42.79" r="0.9"/>
          <circle cx="139.86" cy="42.35" r="0.9"/>
          <circle cx="140.17" cy="41.63" r="0.9"/>
          <circle cx="140.48" cy="40.65" r="0.9"/>
          <circle cx="140.78" cy="39.43" r="0.9"/>
          <circle cx="141.09" cy="38" r="0.9"/>
          <circle cx="141.4" cy="36.4" r="0.9"/>
          <circle cx="141.71" cy="34.66" r="0.9"/>
          <circle cx="142.01" cy="32.83" r="0.9"/>
          <circle cx="142.32" cy="30.96" r="0.9"/>
          <circle cx="142.63" cy="29.08" r="0.9"/>
          <circle cx="142.94" cy="27.26" r="0.9"/>
          <circle cx="143.25" cy="25.52" r="0.9"/>
          <circle cx="143.55" cy="23.92" r="0.9"/>
          <circle cx="143.86" cy="22.49" r="0.9"/>
          <circle cx="144.17" cy="21.27" r="0.9"/>
          <circle cx="144.48" cy="20.28" r="0.9"/>
          <circle cx="144.78" cy="19.57" r="0.9"/>
          <circle cx="145.09" cy="19.13" r="0.9"/>
          <circle cx="145.4" cy="18.98" r="0.9"/>
        </g>
      </g>
    </g>
  </g>
  <g class="guide ylabels" font-size="2.82" font-family="'PT Sans Caption','Helvetica Neue','Helvetica',sans-serif" fill="#6C606B" id="fig-2e885718b33642399438dbbebddd8f7f-element-12">
    <text x="19.31" y="54.91" text-anchor="end" dy="0.35em">0.75</text>
    <text x="19.31" y="42.94" text-anchor="end" dy="0.35em">0.80</text>
    <text x="19.31" y="30.96" text-anchor="end" dy="0.35em">0.85</text>
    <text x="19.31" y="18.98" text-anchor="end" dy="0.35em">0.90</text>
    <text x="19.31" y="7" text-anchor="end" dy="0.35em">0.95</text>
  </g>
  <g font-size="3.88" font-family="'PT Sans','Helvetica Neue','Helvetica',sans-serif" fill="#564A55" stroke="none" id="fig-2e885718b33642399438dbbebddd8f7f-element-13">
    <text x="8.81" y="28.96" text-anchor="middle" dy="0.35em" transform="rotate(-90, 8.81, 30.96)">Estimated p0</text>
  </g>
</g>
<defs>
<clipPath id="fig-2e885718b33642399438dbbebddd8f7f-element-5">
  <path d="M20.31,5 L 147.4 5 147.4 56.91 20.31 56.91" />
</clipPath
></defs>
</svg>
