<?xml version="1.0" encoding="UTF-8"?>
<svg xmlns="http://www.w3.org/2000/svg"
     xmlns:xlink="http://www.w3.org/1999/xlink"
     xmlns:gadfly="http://www.gadflyjl.org/ns"
     version="1.2"
     width="152.4mm" height="76.2mm" viewBox="0 0 152.4 76.2"
     stroke="none"
     fill="#000000"
     stroke-width="0.3"
     font-size="3.88"
>
<g class="plotroot xscalable yscalable" id="fig-9504108810604a428ffe58e58f7d5109-element-1">
  <g font-size="3.88" font-family="'PT Sans','Helvetica Neue','Helvetica',sans-serif" fill="#564A55" stroke="none" id="fig-9504108810604a428ffe58e58f7d5109-element-2">
    <text x="84.69" y="68.2" text-anchor="middle">Time</text>
  </g>
  <g class="guide xlabels" font-size="2.82" font-family="'PT Sans Caption','Helvetica Neue','Helvetica',sans-serif" fill="#6C606B" id="fig-9504108810604a428ffe58e58f7d5109-element-3">
    <text x="23.98" y="60.59" text-anchor="middle">0</text>
    <text x="84.69" y="60.59" text-anchor="middle">5</text>
    <text x="145.4" y="60.59" text-anchor="middle">10</text>
  </g>
  <g clip-path="url(#fig-9504108810604a428ffe58e58f7d5109-element-5)" id="fig-9504108810604a428ffe58e58f7d5109-element-4">
    <g pointer-events="visible" opacity="1" fill="none" stroke="none" class="guide background" id="fig-9504108810604a428ffe58e58f7d5109-element-6">
      <rect x="21.98" y="5" width="125.42" height="51.91"/>
    </g>
    <g class="guide ygridlines xfixed" stroke-dasharray="0.5,0.5" stroke-width="0.2" stroke="#D0D0E0" id="fig-9504108810604a428ffe58e58f7d5109-element-7">
      <path fill="none" d="M21.98,54.91 L 147.4 54.91"/>
      <path fill="none" d="M21.98,42.94 L 147.4 42.94"/>
      <path fill="none" d="M21.98,30.96 L 147.4 30.96"/>
      <path fill="none" d="M21.98,18.98 L 147.4 18.98"/>
      <path fill="none" d="M21.98,7 L 147.4 7"/>
    </g>
    <g class="guide xgridlines yfixed" stroke-dasharray="0.5,0.5" stroke-width="0.2" stroke="#D0D0E0" id="fig-9504108810604a428ffe58e58f7d5109-element-8">
      <path fill="none" d="M23.98,5 L 23.98 56.91"/>
      <path fill="none" d="M84.69,5 L 84.69 56.91"/>
      <path fill="none" d="M145.4,5 L 145.4 56.91"/>
    </g>
    <g class="plotpanel" id="fig-9504108810604a428ffe58e58f7d5109-element-9">
      <g class="geometry" id="fig-9504108810604a428ffe58e58f7d5109-element-10">
        <g class="color_RGB{Float32}(0.0f0,0.74736935f0,1.0f0)" stroke="#FFFFFF" stroke-width="0.3" fill="#00BFFF" id="fig-9504108810604a428ffe58e58f7d5109-element-11">
          <circle cx="23.98" cy="45.93" r="0.9"/>
          <circle cx="24.28" cy="7.83" r="0.9"/>
          <circle cx="24.59" cy="8.08" r="0.9"/>
          <circle cx="24.89" cy="8.47" r="0.9"/>
          <circle cx="25.19" cy="9.01" r="0.9"/>
          <circle cx="25.5" cy="9.69" r="0.9"/>
          <circle cx="25.8" cy="10.48" r="0.9"/>
          <circle cx="26.1" cy="11.36" r="0.9"/>
          <circle cx="26.41" cy="12.32" r="0.9"/>
          <circle cx="26.71" cy="13.32" r="0.9"/>
          <circle cx="27.01" cy="14.36" r="0.9"/>
          <circle cx="27.32" cy="15.39" r="0.9"/>
          <circle cx="27.62" cy="16.4" r="0.9"/>
          <circle cx="27.92" cy="17.35" r="0.9"/>
          <circle cx="28.23" cy="18.24" r="0.9"/>
          <circle cx="28.53" cy="19.03" r="0.9"/>
          <circle cx="28.84" cy="19.7" r="0.9"/>
          <circle cx="29.14" cy="20.24" r="0.9"/>
          <circle cx="29.44" cy="20.64" r="0.9"/>
          <circle cx="29.75" cy="20.88" r="0.9"/>
          <circle cx="30.05" cy="20.96" r="0.9"/>
          <circle cx="30.35" cy="20.88" r="0.9"/>
          <circle cx="30.66" cy="20.64" r="0.9"/>
          <circle cx="30.96" cy="20.24" r="0.9"/>
          <circle cx="31.26" cy="19.7" r="0.9"/>
          <circle cx="31.57" cy="19.02" r="0.9"/>
          <circle cx="31.87" cy="18.24" r="0.9"/>
          <circle cx="32.17" cy="17.35" r="0.9"/>
          <circle cx="32.48" cy="16.4" r="0.9"/>
          <circle cx="32.78" cy="15.39" r="0.9"/>
          <circle cx="33.08" cy="14.36" r="0.9"/>
          <circle cx="33.39" cy="13.32" r="0.9"/>
          <circle cx="33.69" cy="12.32" r="0.9"/>
          <circle cx="34" cy="11.36" r="0.9"/>
          <circle cx="34.3" cy="10.47" r="0.9"/>
          <circle cx="34.6" cy="9.69" r="0.9"/>
          <circle cx="34.91" cy="9.01" r="0.9"/>
          <circle cx="35.21" cy="8.47" r="0.9"/>
          <circle cx="35.51" cy="8.08" r="0.9"/>
          <circle cx="35.82" cy="7.83" r="0.9"/>
          <circle cx="36.12" cy="7.75" r="0.9"/>
          <circle cx="36.42" cy="7.83" r="0.9"/>
          <circle cx="36.73" cy="8.08" r="0.9"/>
          <circle cx="37.03" cy="8.47" r="0.9"/>
          <circle cx="37.33" cy="9.01" r="0.9"/>
          <circle cx="37.64" cy="9.69" r="0.9"/>
          <circle cx="37.94" cy="10.48" r="0.9"/>
          <circle cx="38.25" cy="11.36" r="0.9"/>
          <circle cx="38.55" cy="12.32" r="0.9"/>
          <circle cx="38.85" cy="13.32" r="0.9"/>
          <circle cx="39.16" cy="14.36" r="0.9"/>
          <circle cx="39.46" cy="15.39" r="0.9"/>
          <circle cx="39.76" cy="16.4" r="0.9"/>
          <circle cx="40.07" cy="17.35" r="0.9"/>
          <circle cx="40.37" cy="18.24" r="0.9"/>
          <circle cx="40.67" cy="19.03" r="0.9"/>
          <circle cx="40.98" cy="19.7" r="0.9"/>
          <circle cx="41.28" cy="20.24" r="0.9"/>
          <circle cx="41.58" cy="20.64" r="0.9"/>
          <circle cx="41.89" cy="20.88" r="0.9"/>
          <circle cx="42.19" cy="20.96" r="0.9"/>
          <circle cx="42.5" cy="20.88" r="0.9"/>
          <circle cx="42.8" cy="20.64" r="0.9"/>
          <circle cx="43.1" cy="20.24" r="0.9"/>
          <circle cx="43.41" cy="19.7" r="0.9"/>
          <circle cx="43.71" cy="19.02" r="0.9"/>
          <circle cx="44.01" cy="18.24" r="0.9"/>
          <circle cx="44.32" cy="17.35" r="0.9"/>
          <circle cx="44.62" cy="16.4" r="0.9"/>
          <circle cx="44.92" cy="15.39" r="0.9"/>
          <circle cx="45.23" cy="14.36" r="0.9"/>
          <circle cx="45.53" cy="13.32" r="0.9"/>
          <circle cx="45.83" cy="12.32" r="0.9"/>
          <circle cx="46.14" cy="11.36" r="0.9"/>
          <circle cx="46.44" cy="10.47" r="0.9"/>
          <circle cx="46.74" cy="9.69" r="0.9"/>
          <circle cx="47.05" cy="9.01" r="0.9"/>
          <circle cx="47.35" cy="8.47" r="0.9"/>
          <circle cx="47.66" cy="8.08" r="0.9"/>
          <circle cx="47.96" cy="7.83" r="0.9"/>
          <circle cx="48.26" cy="7.75" r="0.9"/>
          <circle cx="48.57" cy="7.83" r="0.9"/>
          <circle cx="48.87" cy="8.08" r="0.9"/>
          <circle cx="49.17" cy="8.47" r="0.9"/>
          <circle cx="49.48" cy="9.01" r="0.9"/>
          <circle cx="49.78" cy="9.69" r="0.9"/>
          <circle cx="50.08" cy="10.48" r="0.9"/>
          <circle cx="50.39" cy="11.36" r="0.9"/>
          <circle cx="50.69" cy="12.32" r="0.9"/>
          <circle cx="50.99" cy="13.32" r="0.9"/>
          <circle cx="51.3" cy="14.36" r="0.9"/>
          <circle cx="51.6" cy="15.39" r="0.9"/>
          <circle cx="51.91" cy="16.4" r="0.9"/>
          <circle cx="52.21" cy="17.35" r="0.9"/>
          <circle cx="52.51" cy="18.24" r="0.9"/>
          <circle cx="52.82" cy="19.03" r="0.9"/>
          <circle cx="53.12" cy="19.7" r="0.9"/>
          <circle cx="53.42" cy="20.24" r="0.9"/>
          <circle cx="53.73" cy="20.64" r="0.9"/>
          <circle cx="54.03" cy="20.88" r="0.9"/>
          <circle cx="54.33" cy="20.96" r="0.9"/>
          <circle cx="54.64" cy="20.88" r="0.9"/>
          <circle cx="54.94" cy="20.64" r="0.9"/>
          <circle cx="55.24" cy="20.24" r="0.9"/>
          <circle cx="55.55" cy="19.7" r="0.9"/>
          <circle cx="55.85" cy="19.02" r="0.9"/>
          <circle cx="56.16" cy="18.24" r="0.9"/>
          <circle cx="56.46" cy="17.35" r="0.9"/>
          <circle cx="56.76" cy="16.4" r="0.9"/>
          <circle cx="57.07" cy="15.39" r="0.9"/>
          <circle cx="57.37" cy="14.36" r="0.9"/>
          <circle cx="57.67" cy="13.32" r="0.9"/>
          <circle cx="57.98" cy="12.32" r="0.9"/>
          <circle cx="58.28" cy="11.36" r="0.9"/>
          <circle cx="58.58" cy="10.47" r="0.9"/>
          <circle cx="58.89" cy="9.69" r="0.9"/>
          <circle cx="59.19" cy="9.01" r="0.9"/>
          <circle cx="59.49" cy="8.47" r="0.9"/>
          <circle cx="59.8" cy="8.08" r="0.9"/>
          <circle cx="60.1" cy="7.83" r="0.9"/>
          <circle cx="60.4" cy="7.75" r="0.9"/>
          <circle cx="60.71" cy="7.83" r="0.9"/>
          <circle cx="61.01" cy="8.08" r="0.9"/>
          <circle cx="61.32" cy="8.47" r="0.9"/>
          <circle cx="61.62" cy="9.01" r="0.9"/>
          <circle cx="61.92" cy="9.69" r="0.9"/>
          <circle cx="62.23" cy="10.48" r="0.9"/>
          <circle cx="62.53" cy="11.36" r="0.9"/>
          <circle cx="62.83" cy="12.32" r="0.9"/>
          <circle cx="63.14" cy="13.32" r="0.9"/>
          <circle cx="63.44" cy="14.36" r="0.9"/>
          <circle cx="63.74" cy="15.39" r="0.9"/>
          <circle cx="64.05" cy="16.4" r="0.9"/>
          <circle cx="64.35" cy="17.35" r="0.9"/>
          <circle cx="64.65" cy="18.24" r="0.9"/>
          <circle cx="64.96" cy="19.03" r="0.9"/>
          <circle cx="65.26" cy="19.7" r="0.9"/>
          <circle cx="65.57" cy="20.24" r="0.9"/>
          <circle cx="65.87" cy="20.64" r="0.9"/>
          <circle cx="66.17" cy="20.88" r="0.9"/>
          <circle cx="66.48" cy="20.96" r="0.9"/>
          <circle cx="66.78" cy="20.88" r="0.9"/>
          <circle cx="67.08" cy="20.64" r="0.9"/>
          <circle cx="67.39" cy="20.24" r="0.9"/>
          <circle cx="67.69" cy="19.7" r="0.9"/>
          <circle cx="67.99" cy="19.02" r="0.9"/>
          <circle cx="68.3" cy="18.24" r="0.9"/>
          <circle cx="68.6" cy="17.35" r="0.9"/>
          <circle cx="68.9" cy="16.4" r="0.9"/>
          <circle cx="69.21" cy="15.39" r="0.9"/>
          <circle cx="69.51" cy="14.36" r="0.9"/>
          <circle cx="69.82" cy="13.32" r="0.9"/>
          <circle cx="70.12" cy="12.32" r="0.9"/>
          <circle cx="70.42" cy="11.36" r="0.9"/>
          <circle cx="70.73" cy="10.47" r="0.9"/>
          <circle cx="71.03" cy="9.69" r="0.9"/>
          <circle cx="71.33" cy="9.01" r="0.9"/>
          <circle cx="71.64" cy="8.47" r="0.9"/>
          <circle cx="71.94" cy="8.08" r="0.9"/>
          <circle cx="72.24" cy="7.83" r="0.9"/>
          <circle cx="72.55" cy="7.75" r="0.9"/>
          <circle cx="72.85" cy="7.83" r="0.9"/>
          <circle cx="73.15" cy="8.08" r="0.9"/>
          <circle cx="73.46" cy="8.47" r="0.9"/>
          <circle cx="73.76" cy="9.01" r="0.9"/>
          <circle cx="74.06" cy="9.69" r="0.9"/>
          <circle cx="74.37" cy="10.48" r="0.9"/>
          <circle cx="74.67" cy="11.36" r="0.9"/>
          <circle cx="74.98" cy="12.32" r="0.9"/>
          <circle cx="75.28" cy="13.32" r="0.9"/>
          <circle cx="75.58" cy="14.36" r="0.9"/>
          <circle cx="75.89" cy="15.39" r="0.9"/>
          <circle cx="76.19" cy="16.4" r="0.9"/>
          <circle cx="76.49" cy="17.35" r="0.9"/>
          <circle cx="76.8" cy="18.24" r="0.9"/>
          <circle cx="77.1" cy="19.03" r="0.9"/>
          <circle cx="77.4" cy="19.7" r="0.9"/>
          <circle cx="77.71" cy="20.24" r="0.9"/>
          <circle cx="78.01" cy="20.64" r="0.9"/>
          <circle cx="78.31" cy="20.88" r="0.9"/>
          <circle cx="78.62" cy="20.96" r="0.9"/>
          <circle cx="78.92" cy="20.88" r="0.9"/>
          <circle cx="79.23" cy="20.64" r="0.9"/>
          <circle cx="79.53" cy="20.24" r="0.9"/>
          <circle cx="79.83" cy="19.7" r="0.9"/>
          <circle cx="80.14" cy="19.02" r="0.9"/>
          <circle cx="80.44" cy="18.24" r="0.9"/>
          <circle cx="80.74" cy="17.35" r="0.9"/>
          <circle cx="81.05" cy="16.4" r="0.9"/>
          <circle cx="81.35" cy="15.39" r="0.9"/>
          <circle cx="81.65" cy="14.36" r="0.9"/>
          <circle cx="81.96" cy="13.32" r="0.9"/>
          <circle cx="82.26" cy="12.32" r="0.9"/>
          <circle cx="82.56" cy="11.36" r="0.9"/>
          <circle cx="82.87" cy="10.47" r="0.9"/>
          <circle cx="83.17" cy="9.69" r="0.9"/>
          <circle cx="83.47" cy="9.01" r="0.9"/>
          <circle cx="83.78" cy="8.47" r="0.9"/>
          <circle cx="84.08" cy="8.08" r="0.9"/>
          <circle cx="84.39" cy="7.83" r="0.9"/>
          <circle cx="84.69" cy="7.75" r="0.9"/>
          <circle cx="84.99" cy="7.83" r="0.9"/>
          <circle cx="85.3" cy="8.08" r="0.9"/>
          <circle cx="85.6" cy="8.47" r="0.9"/>
          <circle cx="85.9" cy="9.01" r="0.9"/>
          <circle cx="86.21" cy="9.69" r="0.9"/>
          <circle cx="86.51" cy="10.48" r="0.9"/>
          <circle cx="86.81" cy="11.36" r="0.9"/>
          <circle cx="87.12" cy="12.32" r="0.9"/>
          <circle cx="87.42" cy="13.32" r="0.9"/>
          <circle cx="87.72" cy="14.36" r="0.9"/>
          <circle cx="88.03" cy="15.39" r="0.9"/>
          <circle cx="88.33" cy="16.4" r="0.9"/>
          <circle cx="88.64" cy="17.35" r="0.9"/>
          <circle cx="88.94" cy="18.24" r="0.9"/>
          <circle cx="89.24" cy="19.03" r="0.9"/>
          <circle cx="89.55" cy="19.7" r="0.9"/>
          <circle cx="89.85" cy="20.24" r="0.9"/>
          <circle cx="90.15" cy="20.64" r="0.9"/>
          <circle cx="90.46" cy="20.88" r="0.9"/>
          <circle cx="90.76" cy="20.96" r="0.9"/>
          <circle cx="91.06" cy="20.88" r="0.9"/>
          <circle cx="91.37" cy="20.64" r="0.9"/>
          <circle cx="91.67" cy="20.24" r="0.9"/>
          <circle cx="91.97" cy="19.7" r="0.9"/>
          <circle cx="92.28" cy="19.02" r="0.9"/>
          <circle cx="92.58" cy="18.24" r="0.9"/>
          <circle cx="92.89" cy="17.35" r="0.9"/>
          <circle cx="93.19" cy="16.4" r="0.9"/>
          <circle cx="93.49" cy="15.39" r="0.9"/>
          <circle cx="93.8" cy="14.36" r="0.9"/>
          <circle cx="94.1" cy="13.32" r="0.9"/>
          <circle cx="94.4" cy="12.32" r="0.9"/>
          <circle cx="94.71" cy="11.36" r="0.9"/>
          <circle cx="95.01" cy="10.47" r="0.9"/>
          <circle cx="95.31" cy="9.69" r="0.9"/>
          <circle cx="95.62" cy="9.01" r="0.9"/>
          <circle cx="95.92" cy="8.47" r="0.9"/>
          <circle cx="96.22" cy="8.08" r="0.9"/>
          <circle cx="96.53" cy="7.83" r="0.9"/>
          <circle cx="96.83" cy="7.75" r="0.9"/>
          <circle cx="97.13" cy="7.83" r="0.9"/>
          <circle cx="97.44" cy="8.08" r="0.9"/>
          <circle cx="97.74" cy="8.47" r="0.9"/>
          <circle cx="98.05" cy="9.01" r="0.9"/>
          <circle cx="98.35" cy="9.69" r="0.9"/>
          <circle cx="98.65" cy="10.48" r="0.9"/>
          <circle cx="98.96" cy="11.36" r="0.9"/>
          <circle cx="99.26" cy="12.32" r="0.9"/>
          <circle cx="99.56" cy="13.32" r="0.9"/>
          <circle cx="99.87" cy="14.36" r="0.9"/>
          <circle cx="100.17" cy="15.39" r="0.9"/>
          <circle cx="100.47" cy="16.4" r="0.9"/>
          <circle cx="100.78" cy="17.35" r="0.9"/>
          <circle cx="101.08" cy="18.24" r="0.9"/>
          <circle cx="101.38" cy="19.03" r="0.9"/>
          <circle cx="101.69" cy="19.7" r="0.9"/>
          <circle cx="101.99" cy="20.24" r="0.9"/>
          <circle cx="102.3" cy="20.64" r="0.9"/>
          <circle cx="102.6" cy="20.88" r="0.9"/>
          <circle cx="102.9" cy="20.96" r="0.9"/>
          <circle cx="103.21" cy="20.88" r="0.9"/>
          <circle cx="103.51" cy="20.64" r="0.9"/>
          <circle cx="103.81" cy="20.24" r="0.9"/>
          <circle cx="104.12" cy="19.7" r="0.9"/>
          <circle cx="104.42" cy="19.02" r="0.9"/>
          <circle cx="104.72" cy="18.24" r="0.9"/>
          <circle cx="105.03" cy="17.35" r="0.9"/>
          <circle cx="105.33" cy="16.4" r="0.9"/>
          <circle cx="105.63" cy="15.39" r="0.9"/>
          <circle cx="105.94" cy="14.36" r="0.9"/>
          <circle cx="106.24" cy="13.32" r="0.9"/>
          <circle cx="106.55" cy="12.32" r="0.9"/>
          <circle cx="106.85" cy="11.36" r="0.9"/>
          <circle cx="107.15" cy="10.47" r="0.9"/>
          <circle cx="107.46" cy="9.69" r="0.9"/>
          <circle cx="107.76" cy="9.01" r="0.9"/>
          <circle cx="108.06" cy="8.47" r="0.9"/>
          <circle cx="108.37" cy="8.08" r="0.9"/>
          <circle cx="108.67" cy="7.83" r="0.9"/>
          <circle cx="108.97" cy="7.75" r="0.9"/>
          <circle cx="109.28" cy="7.83" r="0.9"/>
          <circle cx="109.58" cy="8.08" r="0.9"/>
          <circle cx="109.88" cy="8.47" r="0.9"/>
          <circle cx="110.19" cy="9.01" r="0.9"/>
          <circle cx="110.49" cy="9.69" r="0.9"/>
          <circle cx="110.79" cy="10.48" r="0.9"/>
          <circle cx="111.1" cy="11.36" r="0.9"/>
          <circle cx="111.4" cy="12.32" r="0.9"/>
          <circle cx="111.71" cy="13.32" r="0.9"/>
          <circle cx="112.01" cy="14.36" r="0.9"/>
          <circle cx="112.31" cy="15.39" r="0.9"/>
          <circle cx="112.62" cy="16.4" r="0.9"/>
          <circle cx="112.92" cy="17.35" r="0.9"/>
          <circle cx="113.22" cy="18.24" r="0.9"/>
          <circle cx="113.53" cy="19.03" r="0.9"/>
          <circle cx="113.83" cy="19.7" r="0.9"/>
          <circle cx="114.13" cy="20.24" r="0.9"/>
          <circle cx="114.44" cy="20.64" r="0.9"/>
          <circle cx="114.74" cy="20.88" r="0.9"/>
          <circle cx="115.04" cy="20.96" r="0.9"/>
          <circle cx="115.35" cy="20.88" r="0.9"/>
          <circle cx="115.65" cy="20.64" r="0.9"/>
          <circle cx="115.96" cy="20.24" r="0.9"/>
          <circle cx="116.26" cy="19.7" r="0.9"/>
          <circle cx="116.56" cy="19.02" r="0.9"/>
          <circle cx="116.87" cy="18.24" r="0.9"/>
          <circle cx="117.17" cy="17.35" r="0.9"/>
          <circle cx="117.47" cy="16.4" r="0.9"/>
          <circle cx="117.78" cy="15.39" r="0.9"/>
          <circle cx="118.08" cy="14.36" r="0.9"/>
          <circle cx="118.38" cy="13.32" r="0.9"/>
          <circle cx="118.69" cy="12.32" r="0.9"/>
          <circle cx="118.99" cy="11.36" r="0.9"/>
          <circle cx="119.29" cy="10.47" r="0.9"/>
          <circle cx="119.6" cy="9.69" r="0.9"/>
          <circle cx="119.9" cy="9.01" r="0.9"/>
          <circle cx="120.21" cy="8.47" r="0.9"/>
          <circle cx="120.51" cy="8.08" r="0.9"/>
          <circle cx="120.81" cy="7.83" r="0.9"/>
          <circle cx="121.12" cy="7.75" r="0.9"/>
          <circle cx="121.42" cy="7.83" r="0.9"/>
          <circle cx="121.72" cy="8.08" r="0.9"/>
          <circle cx="122.03" cy="8.47" r="0.9"/>
          <circle cx="122.33" cy="9.01" r="0.9"/>
          <circle cx="122.63" cy="9.69" r="0.9"/>
          <circle cx="122.94" cy="10.48" r="0.9"/>
          <circle cx="123.24" cy="11.36" r="0.9"/>
          <circle cx="123.54" cy="12.32" r="0.9"/>
          <circle cx="123.85" cy="13.32" r="0.9"/>
          <circle cx="124.15" cy="14.36" r="0.9"/>
          <circle cx="124.45" cy="15.39" r="0.9"/>
          <circle cx="124.76" cy="16.4" r="0.9"/>
          <circle cx="125.06" cy="17.35" r="0.9"/>
          <circle cx="125.37" cy="18.24" r="0.9"/>
          <circle cx="125.67" cy="19.03" r="0.9"/>
          <circle cx="125.97" cy="19.7" r="0.9"/>
          <circle cx="126.28" cy="20.24" r="0.9"/>
          <circle cx="126.58" cy="20.64" r="0.9"/>
          <circle cx="126.88" cy="20.88" r="0.9"/>
          <circle cx="127.19" cy="20.96" r="0.9"/>
          <circle cx="127.49" cy="20.88" r="0.9"/>
          <circle cx="127.79" cy="20.64" r="0.9"/>
          <circle cx="128.1" cy="20.24" r="0.9"/>
          <circle cx="128.4" cy="19.7" r="0.9"/>
          <circle cx="128.7" cy="19.02" r="0.9"/>
          <circle cx="129.01" cy="18.24" r="0.9"/>
          <circle cx="129.31" cy="17.35" r="0.9"/>
          <circle cx="129.62" cy="16.4" r="0.9"/>
          <circle cx="129.92" cy="15.39" r="0.9"/>
          <circle cx="130.22" cy="14.36" r="0.9"/>
          <circle cx="130.53" cy="13.32" r="0.9"/>
          <circle cx="130.83" cy="12.32" r="0.9"/>
          <circle cx="131.13" cy="11.36" r="0.9"/>
          <circle cx="131.44" cy="10.47" r="0.9"/>
          <circle cx="131.74" cy="9.69" r="0.9"/>
          <circle cx="132.04" cy="9.01" r="0.9"/>
          <circle cx="132.35" cy="8.47" r="0.9"/>
          <circle cx="132.65" cy="8.08" r="0.9"/>
          <circle cx="132.95" cy="7.83" r="0.9"/>
          <circle cx="133.26" cy="7.75" r="0.9"/>
          <circle cx="133.56" cy="7.83" r="0.9"/>
          <circle cx="133.86" cy="8.08" r="0.9"/>
          <circle cx="134.17" cy="8.47" r="0.9"/>
          <circle cx="134.47" cy="9.01" r="0.9"/>
          <circle cx="134.78" cy="9.69" r="0.9"/>
          <circle cx="135.08" cy="10.48" r="0.9"/>
          <circle cx="135.38" cy="11.36" r="0.9"/>
          <circle cx="135.69" cy="12.32" r="0.9"/>
          <circle cx="135.99" cy="13.32" r="0.9"/>
          <circle cx="136.29" cy="14.36" r="0.9"/>
          <circle cx="136.6" cy="15.39" r="0.9"/>
          <circle cx="136.9" cy="16.4" r="0.9"/>
          <circle cx="137.2" cy="17.35" r="0.9"/>
          <circle cx="137.51" cy="18.24" r="0.9"/>
          <circle cx="137.81" cy="19.03" r="0.9"/>
          <circle cx="138.11" cy="19.7" r="0.9"/>
          <circle cx="138.42" cy="20.24" r="0.9"/>
          <circle cx="138.72" cy="20.64" r="0.9"/>
          <circle cx="139.03" cy="20.88" r="0.9"/>
          <circle cx="139.33" cy="20.96" r="0.9"/>
          <circle cx="139.63" cy="20.88" r="0.9"/>
          <circle cx="139.94" cy="20.64" r="0.9"/>
          <circle cx="140.24" cy="20.24" r="0.9"/>
          <circle cx="140.54" cy="19.7" r="0.9"/>
          <circle cx="140.85" cy="19.02" r="0.9"/>
          <circle cx="141.15" cy="18.24" r="0.9"/>
          <circle cx="141.45" cy="17.35" r="0.9"/>
          <circle cx="141.76" cy="16.4" r="0.9"/>
          <circle cx="142.06" cy="15.39" r="0.9"/>
          <circle cx="142.36" cy="14.36" r="0.9"/>
          <circle cx="142.67" cy="13.32" r="0.9"/>
          <circle cx="142.97" cy="12.32" r="0.9"/>
          <circle cx="143.28" cy="11.36" r="0.9"/>
          <circle cx="143.58" cy="10.47" r="0.9"/>
          <circle cx="143.88" cy="9.69" r="0.9"/>
          <circle cx="144.19" cy="9.01" r="0.9"/>
          <circle cx="144.49" cy="8.47" r="0.9"/>
          <circle cx="144.79" cy="8.08" r="0.9"/>
          <circle cx="145.1" cy="7.83" r="0.9"/>
          <circle cx="145.4" cy="7.74" r="0.9"/>
        </g>
      </g>
    </g>
  </g>
  <g class="guide ylabels" font-size="2.82" font-family="'PT Sans Caption','Helvetica Neue','Helvetica',sans-serif" fill="#6C606B" id="fig-9504108810604a428ffe58e58f7d5109-element-12">
    <text x="20.98" y="54.91" text-anchor="end" dy="0.35em">0.012</text>
    <text x="20.98" y="42.94" text-anchor="end" dy="0.35em">0.014</text>
    <text x="20.98" y="30.96" text-anchor="end" dy="0.35em">0.016</text>
    <text x="20.98" y="18.98" text-anchor="end" dy="0.35em">0.018</text>
    <text x="20.98" y="7" text-anchor="end" dy="0.35em">0.020</text>
  </g>
  <g font-size="3.88" font-family="'PT Sans','Helvetica Neue','Helvetica',sans-serif" fill="#564A55" stroke="none" id="fig-9504108810604a428ffe58e58f7d5109-element-13">
    <text x="8.81" y="28.96" text-anchor="middle" dy="0.35em" transform="rotate(-90, 8.81, 30.96)">p1hat(t)</text>
  </g>
</g>
<defs>
<clipPath id="fig-9504108810604a428ffe58e58f7d5109-element-5">
  <path d="M21.98,5 L 147.4 5 147.4 56.91 21.98 56.91" />
</clipPath
></defs>
</svg>
