<?xml version="1.0" encoding="UTF-8"?>
<svg xmlns="http://www.w3.org/2000/svg"
     xmlns:xlink="http://www.w3.org/1999/xlink"
     xmlns:gadfly="http://www.gadflyjl.org/ns"
     version="1.2"
     width="152.4mm" height="76.2mm" viewBox="0 0 152.4 76.2"
     stroke="none"
     fill="#000000"
     stroke-width="0.3"
     font-size="3.88"
>
<g class="plotroot xscalable yscalable" id="fig-3280c8e0ddf24f64b92bd3947f6ed537-element-1">
  <g font-size="3.88" font-family="'PT Sans','Helvetica Neue','Helvetica',sans-serif" fill="#564A55" stroke="none" id="fig-3280c8e0ddf24f64b92bd3947f6ed537-element-2">
    <text x="85.53" y="68.2" text-anchor="middle">Time</text>
  </g>
  <g class="guide xlabels" font-size="2.82" font-family="'PT Sans Caption','Helvetica Neue','Helvetica',sans-serif" fill="#6C606B" id="fig-3280c8e0ddf24f64b92bd3947f6ed537-element-3">
    <text x="25.65" y="60.59" text-anchor="middle">0</text>
    <text x="37.63" y="60.59" text-anchor="middle">1</text>
    <text x="49.6" y="60.59" text-anchor="middle">2</text>
    <text x="61.58" y="60.59" text-anchor="middle">3</text>
    <text x="73.55" y="60.59" text-anchor="middle">4</text>
    <text x="85.53" y="60.59" text-anchor="middle">5</text>
    <text x="97.5" y="60.59" text-anchor="middle">6</text>
    <text x="109.48" y="60.59" text-anchor="middle">7</text>
    <text x="121.45" y="60.59" text-anchor="middle">8</text>
    <text x="133.43" y="60.59" text-anchor="middle">9</text>
    <text x="145.4" y="60.59" text-anchor="middle">10</text>
  </g>
  <g clip-path="url(#fig-3280c8e0ddf24f64b92bd3947f6ed537-element-5)" id="fig-3280c8e0ddf24f64b92bd3947f6ed537-element-4">
    <g pointer-events="visible" opacity="1" fill="none" stroke="none" class="guide background" id="fig-3280c8e0ddf24f64b92bd3947f6ed537-element-6">
      <rect x="23.65" y="5" width="123.75" height="51.91"/>
    </g>
    <g class="guide xgridlines yfixed" stroke-dasharray="0.5,0.5" stroke-width="0.2" stroke="#D0D0E0" id="fig-3280c8e0ddf24f64b92bd3947f6ed537-element-7">
      <path fill="none" d="M25.65,5 L 25.65 56.91"/>
      <path fill="none" d="M37.63,5 L 37.63 56.91"/>
      <path fill="none" d="M49.6,5 L 49.6 56.91"/>
      <path fill="none" d="M61.58,5 L 61.58 56.91"/>
      <path fill="none" d="M73.55,5 L 73.55 56.91"/>
      <path fill="none" d="M85.53,5 L 85.53 56.91"/>
      <path fill="none" d="M97.5,5 L 97.5 56.91"/>
      <path fill="none" d="M109.48,5 L 109.48 56.91"/>
      <path fill="none" d="M121.45,5 L 121.45 56.91"/>
      <path fill="none" d="M133.43,5 L 133.43 56.91"/>
      <path fill="none" d="M145.4,5 L 145.4 56.91"/>
    </g>
    <g class="guide ygridlines xfixed" stroke-dasharray="0.5,0.5" stroke-width="0.2" stroke="#D0D0E0" id="fig-3280c8e0ddf24f64b92bd3947f6ed537-element-8">
      <path fill="none" d="M23.65,54.91 L 147.4 54.91"/>
      <path fill="none" d="M23.65,49.59 L 147.4 49.59"/>
      <path fill="none" d="M23.65,44.27 L 147.4 44.27"/>
      <path fill="none" d="M23.65,38.94 L 147.4 38.94"/>
      <path fill="none" d="M23.65,33.62 L 147.4 33.62"/>
      <path fill="none" d="M23.65,28.3 L 147.4 28.3"/>
      <path fill="none" d="M23.65,22.97 L 147.4 22.97"/>
      <path fill="none" d="M23.65,17.65 L 147.4 17.65"/>
      <path fill="none" d="M23.65,12.32 L 147.4 12.32"/>
      <path fill="none" d="M23.65,7 L 147.4 7"/>
    </g>
    <g class="plotpanel" id="fig-3280c8e0ddf24f64b92bd3947f6ed537-element-9">
      <g class="geometry" id="fig-3280c8e0ddf24f64b92bd3947f6ed537-element-10">
        <g class="color_RGB{Float32}(0.0f0,0.74736935f0,1.0f0)" stroke="#FFFFFF" stroke-width="0.3" fill="#00BFFF" id="fig-3280c8e0ddf24f64b92bd3947f6ed537-element-11">
          <circle cx="25.65" cy="54.91" r="0.9"/>
          <circle cx="25.95" cy="12.62" r="0.9"/>
          <circle cx="26.25" cy="12.71" r="0.9"/>
          <circle cx="26.55" cy="12.85" r="0.9"/>
          <circle cx="26.85" cy="13.04" r="0.9"/>
          <circle cx="27.15" cy="13.28" r="0.9"/>
          <circle cx="27.45" cy="13.56" r="0.9"/>
          <circle cx="27.75" cy="13.87" r="0.9"/>
          <circle cx="28.05" cy="14.21" r="0.9"/>
          <circle cx="28.35" cy="14.57" r="0.9"/>
          <circle cx="28.65" cy="14.94" r="0.9"/>
          <circle cx="28.94" cy="15.31" r="0.9"/>
          <circle cx="29.24" cy="15.66" r="0.9"/>
          <circle cx="29.54" cy="16.01" r="0.9"/>
          <circle cx="29.84" cy="16.32" r="0.9"/>
          <circle cx="30.14" cy="16.6" r="0.9"/>
          <circle cx="30.44" cy="16.84" r="0.9"/>
          <circle cx="30.74" cy="17.03" r="0.9"/>
          <circle cx="31.04" cy="17.17" r="0.9"/>
          <circle cx="31.34" cy="17.26" r="0.9"/>
          <circle cx="31.64" cy="17.29" r="0.9"/>
          <circle cx="31.94" cy="17.26" r="0.9"/>
          <circle cx="32.24" cy="17.17" r="0.9"/>
          <circle cx="32.54" cy="17.03" r="0.9"/>
          <circle cx="32.84" cy="16.84" r="0.9"/>
          <circle cx="33.14" cy="16.6" r="0.9"/>
          <circle cx="33.44" cy="16.32" r="0.9"/>
          <circle cx="33.73" cy="16" r="0.9"/>
          <circle cx="34.03" cy="15.66" r="0.9"/>
          <circle cx="34.33" cy="15.31" r="0.9"/>
          <circle cx="34.63" cy="14.94" r="0.9"/>
          <circle cx="34.93" cy="14.57" r="0.9"/>
          <circle cx="35.23" cy="14.21" r="0.9"/>
          <circle cx="35.53" cy="13.87" r="0.9"/>
          <circle cx="35.83" cy="13.56" r="0.9"/>
          <circle cx="36.13" cy="13.28" r="0.9"/>
          <circle cx="36.43" cy="13.04" r="0.9"/>
          <circle cx="36.73" cy="12.85" r="0.9"/>
          <circle cx="37.03" cy="12.71" r="0.9"/>
          <circle cx="37.33" cy="12.62" r="0.9"/>
          <circle cx="37.63" cy="12.59" r="0.9"/>
          <circle cx="37.93" cy="12.62" r="0.9"/>
          <circle cx="38.23" cy="12.71" r="0.9"/>
          <circle cx="38.52" cy="12.85" r="0.9"/>
          <circle cx="38.82" cy="13.04" r="0.9"/>
          <circle cx="39.12" cy="13.28" r="0.9"/>
          <circle cx="39.42" cy="13.56" r="0.9"/>
          <circle cx="39.72" cy="13.87" r="0.9"/>
          <circle cx="40.02" cy="14.21" r="0.9"/>
          <circle cx="40.32" cy="14.57" r="0.9"/>
          <circle cx="40.62" cy="14.94" r="0.9"/>
          <circle cx="40.92" cy="15.31" r="0.9"/>
          <circle cx="41.22" cy="15.66" r="0.9"/>
          <circle cx="41.52" cy="16.01" r="0.9"/>
          <circle cx="41.82" cy="16.32" r="0.9"/>
          <circle cx="42.12" cy="16.6" r="0.9"/>
          <circle cx="42.42" cy="16.84" r="0.9"/>
          <circle cx="42.72" cy="17.03" r="0.9"/>
          <circle cx="43.02" cy="17.17" r="0.9"/>
          <circle cx="43.31" cy="17.26" r="0.9"/>
          <circle cx="43.61" cy="17.29" r="0.9"/>
          <circle cx="43.91" cy="17.26" r="0.9"/>
          <circle cx="44.21" cy="17.17" r="0.9"/>
          <circle cx="44.51" cy="17.03" r="0.9"/>
          <circle cx="44.81" cy="16.84" r="0.9"/>
          <circle cx="45.11" cy="16.6" r="0.9"/>
          <circle cx="45.41" cy="16.32" r="0.9"/>
          <circle cx="45.71" cy="16" r="0.9"/>
          <circle cx="46.01" cy="15.66" r="0.9"/>
          <circle cx="46.31" cy="15.31" r="0.9"/>
          <circle cx="46.61" cy="14.94" r="0.9"/>
          <circle cx="46.91" cy="14.57" r="0.9"/>
          <circle cx="47.21" cy="14.21" r="0.9"/>
          <circle cx="47.51" cy="13.87" r="0.9"/>
          <circle cx="47.81" cy="13.56" r="0.9"/>
          <circle cx="48.1" cy="13.28" r="0.9"/>
          <circle cx="48.4" cy="13.04" r="0.9"/>
          <circle cx="48.7" cy="12.85" r="0.9"/>
          <circle cx="49" cy="12.71" r="0.9"/>
          <circle cx="49.3" cy="12.62" r="0.9"/>
          <circle cx="49.6" cy="12.59" r="0.9"/>
          <circle cx="49.9" cy="12.62" r="0.9"/>
          <circle cx="50.2" cy="12.71" r="0.9"/>
          <circle cx="50.5" cy="12.85" r="0.9"/>
          <circle cx="50.8" cy="13.04" r="0.9"/>
          <circle cx="51.1" cy="13.28" r="0.9"/>
          <circle cx="51.4" cy="13.56" r="0.9"/>
          <circle cx="51.7" cy="13.87" r="0.9"/>
          <circle cx="52" cy="14.21" r="0.9"/>
          <circle cx="52.3" cy="14.57" r="0.9"/>
          <circle cx="52.6" cy="14.94" r="0.9"/>
          <circle cx="52.89" cy="15.31" r="0.9"/>
          <circle cx="53.19" cy="15.66" r="0.9"/>
          <circle cx="53.49" cy="16.01" r="0.9"/>
          <circle cx="53.79" cy="16.32" r="0.9"/>
          <circle cx="54.09" cy="16.6" r="0.9"/>
          <circle cx="54.39" cy="16.84" r="0.9"/>
          <circle cx="54.69" cy="17.03" r="0.9"/>
          <circle cx="54.99" cy="17.17" r="0.9"/>
          <circle cx="55.29" cy="17.26" r="0.9"/>
          <circle cx="55.59" cy="17.29" r="0.9"/>
          <circle cx="55.89" cy="17.26" r="0.9"/>
          <circle cx="56.19" cy="17.17" r="0.9"/>
          <circle cx="56.49" cy="17.03" r="0.9"/>
          <circle cx="56.79" cy="16.84" r="0.9"/>
          <circle cx="57.09" cy="16.6" r="0.9"/>
          <circle cx="57.38" cy="16.32" r="0.9"/>
          <circle cx="57.68" cy="16" r="0.9"/>
          <circle cx="57.98" cy="15.66" r="0.9"/>
          <circle cx="58.28" cy="15.31" r="0.9"/>
          <circle cx="58.58" cy="14.94" r="0.9"/>
          <circle cx="58.88" cy="14.57" r="0.9"/>
          <circle cx="59.18" cy="14.21" r="0.9"/>
          <circle cx="59.48" cy="13.87" r="0.9"/>
          <circle cx="59.78" cy="13.56" r="0.9"/>
          <circle cx="60.08" cy="13.28" r="0.9"/>
          <circle cx="60.38" cy="13.04" r="0.9"/>
          <circle cx="60.68" cy="12.85" r="0.9"/>
          <circle cx="60.98" cy="12.71" r="0.9"/>
          <circle cx="61.28" cy="12.62" r="0.9"/>
          <circle cx="61.58" cy="12.59" r="0.9"/>
          <circle cx="61.88" cy="12.62" r="0.9"/>
          <circle cx="62.17" cy="12.71" r="0.9"/>
          <circle cx="62.47" cy="12.85" r="0.9"/>
          <circle cx="62.77" cy="13.04" r="0.9"/>
          <circle cx="63.07" cy="13.28" r="0.9"/>
          <circle cx="63.37" cy="13.56" r="0.9"/>
          <circle cx="63.67" cy="13.87" r="0.9"/>
          <circle cx="63.97" cy="14.21" r="0.9"/>
          <circle cx="64.27" cy="14.57" r="0.9"/>
          <circle cx="64.57" cy="14.94" r="0.9"/>
          <circle cx="64.87" cy="15.31" r="0.9"/>
          <circle cx="65.17" cy="15.66" r="0.9"/>
          <circle cx="65.47" cy="16.01" r="0.9"/>
          <circle cx="65.77" cy="16.32" r="0.9"/>
          <circle cx="66.07" cy="16.6" r="0.9"/>
          <circle cx="66.37" cy="16.84" r="0.9"/>
          <circle cx="66.67" cy="17.03" r="0.9"/>
          <circle cx="66.96" cy="17.17" r="0.9"/>
          <circle cx="67.26" cy="17.26" r="0.9"/>
          <circle cx="67.56" cy="17.29" r="0.9"/>
          <circle cx="67.86" cy="17.26" r="0.9"/>
          <circle cx="68.16" cy="17.17" r="0.9"/>
          <circle cx="68.46" cy="17.03" r="0.9"/>
          <circle cx="68.76" cy="16.84" r="0.9"/>
          <circle cx="69.06" cy="16.6" r="0.9"/>
          <circle cx="69.36" cy="16.32" r="0.9"/>
          <circle cx="69.66" cy="16" r="0.9"/>
          <circle cx="69.96" cy="15.66" r="0.9"/>
          <circle cx="70.26" cy="15.31" r="0.9"/>
          <circle cx="70.56" cy="14.94" r="0.9"/>
          <circle cx="70.86" cy="14.57" r="0.9"/>
          <circle cx="71.16" cy="14.21" r="0.9"/>
          <circle cx="71.46" cy="13.87" r="0.9"/>
          <circle cx="71.75" cy="13.56" r="0.9"/>
          <circle cx="72.05" cy="13.28" r="0.9"/>
          <circle cx="72.35" cy="13.04" r="0.9"/>
          <circle cx="72.65" cy="12.85" r="0.9"/>
          <circle cx="72.95" cy="12.71" r="0.9"/>
          <circle cx="73.25" cy="12.62" r="0.9"/>
          <circle cx="73.55" cy="12.59" r="0.9"/>
          <circle cx="73.85" cy="12.62" r="0.9"/>
          <circle cx="74.15" cy="12.71" r="0.9"/>
          <circle cx="74.45" cy="12.85" r="0.9"/>
          <circle cx="74.75" cy="13.04" r="0.9"/>
          <circle cx="75.05" cy="13.28" r="0.9"/>
          <circle cx="75.35" cy="13.56" r="0.9"/>
          <circle cx="75.65" cy="13.87" r="0.9"/>
          <circle cx="75.95" cy="14.21" r="0.9"/>
          <circle cx="76.25" cy="14.57" r="0.9"/>
          <circle cx="76.54" cy="14.94" r="0.9"/>
          <circle cx="76.84" cy="15.31" r="0.9"/>
          <circle cx="77.14" cy="15.66" r="0.9"/>
          <circle cx="77.44" cy="16.01" r="0.9"/>
          <circle cx="77.74" cy="16.32" r="0.9"/>
          <circle cx="78.04" cy="16.6" r="0.9"/>
          <circle cx="78.34" cy="16.84" r="0.9"/>
          <circle cx="78.64" cy="17.03" r="0.9"/>
          <circle cx="78.94" cy="17.17" r="0.9"/>
          <circle cx="79.24" cy="17.26" r="0.9"/>
          <circle cx="79.54" cy="17.29" r="0.9"/>
          <circle cx="79.84" cy="17.26" r="0.9"/>
          <circle cx="80.14" cy="17.17" r="0.9"/>
          <circle cx="80.44" cy="17.03" r="0.9"/>
          <circle cx="80.74" cy="16.84" r="0.9"/>
          <circle cx="81.04" cy="16.6" r="0.9"/>
          <circle cx="81.33" cy="16.32" r="0.9"/>
          <circle cx="81.63" cy="16" r="0.9"/>
          <circle cx="81.93" cy="15.66" r="0.9"/>
          <circle cx="82.23" cy="15.31" r="0.9"/>
          <circle cx="82.53" cy="14.94" r="0.9"/>
          <circle cx="82.83" cy="14.57" r="0.9"/>
          <circle cx="83.13" cy="14.21" r="0.9"/>
          <circle cx="83.43" cy="13.87" r="0.9"/>
          <circle cx="83.73" cy="13.56" r="0.9"/>
          <circle cx="84.03" cy="13.28" r="0.9"/>
          <circle cx="84.33" cy="13.04" r="0.9"/>
          <circle cx="84.63" cy="12.85" r="0.9"/>
          <circle cx="84.93" cy="12.71" r="0.9"/>
          <circle cx="85.23" cy="12.62" r="0.9"/>
          <circle cx="85.53" cy="12.59" r="0.9"/>
          <circle cx="85.83" cy="12.62" r="0.9"/>
          <circle cx="86.12" cy="12.71" r="0.9"/>
          <circle cx="86.42" cy="12.85" r="0.9"/>
          <circle cx="86.72" cy="13.04" r="0.9"/>
          <circle cx="87.02" cy="13.28" r="0.9"/>
          <circle cx="87.32" cy="13.56" r="0.9"/>
          <circle cx="87.62" cy="13.87" r="0.9"/>
          <circle cx="87.92" cy="14.21" r="0.9"/>
          <circle cx="88.22" cy="14.57" r="0.9"/>
          <circle cx="88.52" cy="14.94" r="0.9"/>
          <circle cx="88.82" cy="15.31" r="0.9"/>
          <circle cx="89.12" cy="15.66" r="0.9"/>
          <circle cx="89.42" cy="16.01" r="0.9"/>
          <circle cx="89.72" cy="16.32" r="0.9"/>
          <circle cx="90.02" cy="16.6" r="0.9"/>
          <circle cx="90.32" cy="16.84" r="0.9"/>
          <circle cx="90.62" cy="17.03" r="0.9"/>
          <circle cx="90.91" cy="17.17" r="0.9"/>
          <circle cx="91.21" cy="17.26" r="0.9"/>
          <circle cx="91.51" cy="17.29" r="0.9"/>
          <circle cx="91.81" cy="17.26" r="0.9"/>
          <circle cx="92.11" cy="17.17" r="0.9"/>
          <circle cx="92.41" cy="17.03" r="0.9"/>
          <circle cx="92.71" cy="16.84" r="0.9"/>
          <circle cx="93.01" cy="16.6" r="0.9"/>
          <circle cx="93.31" cy="16.32" r="0.9"/>
          <circle cx="93.61" cy="16" r="0.9"/>
          <circle cx="93.91" cy="15.66" r="0.9"/>
          <circle cx="94.21" cy="15.31" r="0.9"/>
          <circle cx="94.51" cy="14.94" r="0.9"/>
          <circle cx="94.81" cy="14.57" r="0.9"/>
          <circle cx="95.11" cy="14.21" r="0.9"/>
          <circle cx="95.41" cy="13.87" r="0.9"/>
          <circle cx="95.7" cy="13.56" r="0.9"/>
          <circle cx="96" cy="13.28" r="0.9"/>
          <circle cx="96.3" cy="13.04" r="0.9"/>
          <circle cx="96.6" cy="12.85" r="0.9"/>
          <circle cx="96.9" cy="12.71" r="0.9"/>
          <circle cx="97.2" cy="12.62" r="0.9"/>
          <circle cx="97.5" cy="12.59" r="0.9"/>
          <circle cx="97.8" cy="12.62" r="0.9"/>
          <circle cx="98.1" cy="12.71" r="0.9"/>
          <circle cx="98.4" cy="12.85" r="0.9"/>
          <circle cx="98.7" cy="13.04" r="0.9"/>
          <circle cx="99" cy="13.28" r="0.9"/>
          <circle cx="99.3" cy="13.56" r="0.9"/>
          <circle cx="99.6" cy="13.87" r="0.9"/>
          <circle cx="99.9" cy="14.21" r="0.9"/>
          <circle cx="100.2" cy="14.57" r="0.9"/>
          <circle cx="100.49" cy="14.94" r="0.9"/>
          <circle cx="100.79" cy="15.31" r="0.9"/>
          <circle cx="101.09" cy="15.66" r="0.9"/>
          <circle cx="101.39" cy="16.01" r="0.9"/>
          <circle cx="101.69" cy="16.32" r="0.9"/>
          <circle cx="101.99" cy="16.6" r="0.9"/>
          <circle cx="102.29" cy="16.84" r="0.9"/>
          <circle cx="102.59" cy="17.03" r="0.9"/>
          <circle cx="102.89" cy="17.17" r="0.9"/>
          <circle cx="103.19" cy="17.26" r="0.9"/>
          <circle cx="103.49" cy="17.29" r="0.9"/>
          <circle cx="103.79" cy="17.26" r="0.9"/>
          <circle cx="104.09" cy="17.17" r="0.9"/>
          <circle cx="104.39" cy="17.03" r="0.9"/>
          <circle cx="104.69" cy="16.84" r="0.9"/>
          <circle cx="104.98" cy="16.6" r="0.9"/>
          <circle cx="105.28" cy="16.32" r="0.9"/>
          <circle cx="105.58" cy="16" r="0.9"/>
          <circle cx="105.88" cy="15.66" r="0.9"/>
          <circle cx="106.18" cy="15.31" r="0.9"/>
          <circle cx="106.48" cy="14.94" r="0.9"/>
          <circle cx="106.78" cy="14.57" r="0.9"/>
          <circle cx="107.08" cy="14.21" r="0.9"/>
          <circle cx="107.38" cy="13.87" r="0.9"/>
          <circle cx="107.68" cy="13.56" r="0.9"/>
          <circle cx="107.98" cy="13.28" r="0.9"/>
          <circle cx="108.28" cy="13.04" r="0.9"/>
          <circle cx="108.58" cy="12.85" r="0.9"/>
          <circle cx="108.88" cy="12.71" r="0.9"/>
          <circle cx="109.18" cy="12.62" r="0.9"/>
          <circle cx="109.48" cy="12.59" r="0.9"/>
          <circle cx="109.77" cy="12.62" r="0.9"/>
          <circle cx="110.07" cy="12.71" r="0.9"/>
          <circle cx="110.37" cy="12.85" r="0.9"/>
          <circle cx="110.67" cy="13.04" r="0.9"/>
          <circle cx="110.97" cy="13.28" r="0.9"/>
          <circle cx="111.27" cy="13.56" r="0.9"/>
          <circle cx="111.57" cy="13.87" r="0.9"/>
          <circle cx="111.87" cy="14.21" r="0.9"/>
          <circle cx="112.17" cy="14.57" r="0.9"/>
          <circle cx="112.47" cy="14.94" r="0.9"/>
          <circle cx="112.77" cy="15.31" r="0.9"/>
          <circle cx="113.07" cy="15.66" r="0.9"/>
          <circle cx="113.37" cy="16.01" r="0.9"/>
          <circle cx="113.67" cy="16.32" r="0.9"/>
          <circle cx="113.97" cy="16.6" r="0.9"/>
          <circle cx="114.27" cy="16.84" r="0.9"/>
          <circle cx="114.56" cy="17.03" r="0.9"/>
          <circle cx="114.86" cy="17.17" r="0.9"/>
          <circle cx="115.16" cy="17.26" r="0.9"/>
          <circle cx="115.46" cy="17.29" r="0.9"/>
          <circle cx="115.76" cy="17.26" r="0.9"/>
          <circle cx="116.06" cy="17.17" r="0.9"/>
          <circle cx="116.36" cy="17.03" r="0.9"/>
          <circle cx="116.66" cy="16.84" r="0.9"/>
          <circle cx="116.96" cy="16.6" r="0.9"/>
          <circle cx="117.26" cy="16.32" r="0.9"/>
          <circle cx="117.56" cy="16" r="0.9"/>
          <circle cx="117.86" cy="15.66" r="0.9"/>
          <circle cx="118.16" cy="15.31" r="0.9"/>
          <circle cx="118.46" cy="14.94" r="0.9"/>
          <circle cx="118.76" cy="14.57" r="0.9"/>
          <circle cx="119.06" cy="14.21" r="0.9"/>
          <circle cx="119.35" cy="13.87" r="0.9"/>
          <circle cx="119.65" cy="13.56" r="0.9"/>
          <circle cx="119.95" cy="13.28" r="0.9"/>
          <circle cx="120.25" cy="13.04" r="0.9"/>
          <circle cx="120.55" cy="12.85" r="0.9"/>
          <circle cx="120.85" cy="12.71" r="0.9"/>
          <circle cx="121.15" cy="12.62" r="0.9"/>
          <circle cx="121.45" cy="12.59" r="0.9"/>
          <circle cx="121.75" cy="12.62" r="0.9"/>
          <circle cx="122.05" cy="12.71" r="0.9"/>
          <circle cx="122.35" cy="12.85" r="0.9"/>
          <circle cx="122.65" cy="13.04" r="0.9"/>
          <circle cx="122.95" cy="13.28" r="0.9"/>
          <circle cx="123.25" cy="13.56" r="0.9"/>
          <circle cx="123.55" cy="13.87" r="0.9"/>
          <circle cx="123.85" cy="14.21" r="0.9"/>
          <circle cx="124.14" cy="14.57" r="0.9"/>
          <circle cx="124.44" cy="14.94" r="0.9"/>
          <circle cx="124.74" cy="15.31" r="0.9"/>
          <circle cx="125.04" cy="15.66" r="0.9"/>
          <circle cx="125.34" cy="16.01" r="0.9"/>
          <circle cx="125.64" cy="16.32" r="0.9"/>
          <circle cx="125.94" cy="16.6" r="0.9"/>
          <circle cx="126.24" cy="16.84" r="0.9"/>
          <circle cx="126.54" cy="17.03" r="0.9"/>
          <circle cx="126.84" cy="17.17" r="0.9"/>
          <circle cx="127.14" cy="17.26" r="0.9"/>
          <circle cx="127.44" cy="17.29" r="0.9"/>
          <circle cx="127.74" cy="17.26" r="0.9"/>
          <circle cx="128.04" cy="17.17" r="0.9"/>
          <circle cx="128.34" cy="17.03" r="0.9"/>
          <circle cx="128.64" cy="16.84" r="0.9"/>
          <circle cx="128.93" cy="16.6" r="0.9"/>
          <circle cx="129.23" cy="16.32" r="0.9"/>
          <circle cx="129.53" cy="16" r="0.9"/>
          <circle cx="129.83" cy="15.66" r="0.9"/>
          <circle cx="130.13" cy="15.31" r="0.9"/>
          <circle cx="130.43" cy="14.94" r="0.9"/>
          <circle cx="130.73" cy="14.57" r="0.9"/>
          <circle cx="131.03" cy="14.21" r="0.9"/>
          <circle cx="131.33" cy="13.87" r="0.9"/>
          <circle cx="131.63" cy="13.56" r="0.9"/>
          <circle cx="131.93" cy="13.28" r="0.9"/>
          <circle cx="132.23" cy="13.04" r="0.9"/>
          <circle cx="132.53" cy="12.85" r="0.9"/>
          <circle cx="132.83" cy="12.71" r="0.9"/>
          <circle cx="133.13" cy="12.62" r="0.9"/>
          <circle cx="133.43" cy="12.59" r="0.9"/>
          <circle cx="133.72" cy="12.62" r="0.9"/>
          <circle cx="134.02" cy="12.71" r="0.9"/>
          <circle cx="134.32" cy="12.85" r="0.9"/>
          <circle cx="134.62" cy="13.04" r="0.9"/>
          <circle cx="134.92" cy="13.28" r="0.9"/>
          <circle cx="135.22" cy="13.56" r="0.9"/>
          <circle cx="135.52" cy="13.87" r="0.9"/>
          <circle cx="135.82" cy="14.21" r="0.9"/>
          <circle cx="136.12" cy="14.57" r="0.9"/>
          <circle cx="136.42" cy="14.94" r="0.9"/>
          <circle cx="136.72" cy="15.31" r="0.9"/>
          <circle cx="137.02" cy="15.66" r="0.9"/>
          <circle cx="137.32" cy="16.01" r="0.9"/>
          <circle cx="137.62" cy="16.32" r="0.9"/>
          <circle cx="137.92" cy="16.6" r="0.9"/>
          <circle cx="138.22" cy="16.84" r="0.9"/>
          <circle cx="138.51" cy="17.03" r="0.9"/>
          <circle cx="138.81" cy="17.17" r="0.9"/>
          <circle cx="139.11" cy="17.26" r="0.9"/>
          <circle cx="139.41" cy="17.29" r="0.9"/>
          <circle cx="139.71" cy="17.26" r="0.9"/>
          <circle cx="140.01" cy="17.17" r="0.9"/>
          <circle cx="140.31" cy="17.03" r="0.9"/>
          <circle cx="140.61" cy="16.84" r="0.9"/>
          <circle cx="140.91" cy="16.6" r="0.9"/>
          <circle cx="141.21" cy="16.32" r="0.9"/>
          <circle cx="141.51" cy="16" r="0.9"/>
          <circle cx="141.81" cy="15.66" r="0.9"/>
          <circle cx="142.11" cy="15.31" r="0.9"/>
          <circle cx="142.41" cy="14.94" r="0.9"/>
          <circle cx="142.71" cy="14.57" r="0.9"/>
          <circle cx="143.01" cy="14.21" r="0.9"/>
          <circle cx="143.3" cy="13.87" r="0.9"/>
          <circle cx="143.6" cy="13.56" r="0.9"/>
          <circle cx="143.9" cy="13.28" r="0.9"/>
          <circle cx="144.2" cy="13.04" r="0.9"/>
          <circle cx="144.5" cy="12.85" r="0.9"/>
          <circle cx="144.8" cy="12.71" r="0.9"/>
          <circle cx="145.1" cy="12.62" r="0.9"/>
          <circle cx="145.4" cy="12.59" r="0.9"/>
        </g>
      </g>
    </g>
  </g>
  <g class="guide ylabels" font-size="2.82" font-family="'PT Sans Caption','Helvetica Neue','Helvetica',sans-serif" fill="#6C606B" id="fig-3280c8e0ddf24f64b92bd3947f6ed537-element-12">
    <text x="22.65" y="54.91" text-anchor="end" dy="0.35em">0.0000</text>
    <text x="22.65" y="49.59" text-anchor="end" dy="0.35em">0.0025</text>
    <text x="22.65" y="44.27" text-anchor="end" dy="0.35em">0.0050</text>
    <text x="22.65" y="38.94" text-anchor="end" dy="0.35em">0.0075</text>
    <text x="22.65" y="33.62" text-anchor="end" dy="0.35em">0.0100</text>
    <text x="22.65" y="28.3" text-anchor="end" dy="0.35em">0.0125</text>
    <text x="22.65" y="22.97" text-anchor="end" dy="0.35em">0.0150</text>
    <text x="22.65" y="17.65" text-anchor="end" dy="0.35em">0.0175</text>
    <text x="22.65" y="12.32" text-anchor="end" dy="0.35em">0.0200</text>
    <text x="22.65" y="7" text-anchor="end" dy="0.35em">0.0225</text>
  </g>
  <g font-size="3.88" font-family="'PT Sans','Helvetica Neue','Helvetica',sans-serif" fill="#564A55" stroke="none" id="fig-3280c8e0ddf24f64b92bd3947f6ed537-element-13">
    <text x="8.81" y="28.96" text-anchor="middle" dy="0.35em" transform="rotate(-90, 8.81, 30.96)">p1hat(t)</text>
  </g>
</g>
<defs>
<clipPath id="fig-3280c8e0ddf24f64b92bd3947f6ed537-element-5">
  <path d="M23.65,5 L 147.4 5 147.4 56.91 23.65 56.91" />
</clipPath
></defs>
</svg>
