<?xml version="1.0" encoding="UTF-8"?>
<svg xmlns="http://www.w3.org/2000/svg"
     xmlns:xlink="http://www.w3.org/1999/xlink"
     xmlns:gadfly="http://www.gadflyjl.org/ns"
     version="1.2"
     width="152.4mm" height="76.2mm" viewBox="0 0 152.4 76.2"
     stroke="none"
     fill="#000000"
     stroke-width="0.3"
     font-size="3.88"
>
<g class="plotroot xscalable yscalable" id="fig-edb47e97672e4fb095248782ef2b3beb-element-1">
  <g font-size="3.88" font-family="'PT Sans','Helvetica Neue','Helvetica',sans-serif" fill="#564A55" stroke="none" id="fig-edb47e97672e4fb095248782ef2b3beb-element-2">
    <text x="83.85" y="68.2" text-anchor="middle">Time</text>
  </g>
  <g class="guide xlabels" font-size="2.82" font-family="'PT Sans Caption','Helvetica Neue','Helvetica',sans-serif" fill="#6C606B" id="fig-edb47e97672e4fb095248782ef2b3beb-element-3">
    <text x="22.31" y="60.59" text-anchor="middle">0</text>
    <text x="83.85" y="60.59" text-anchor="middle">5</text>
    <text x="145.4" y="60.59" text-anchor="middle">10</text>
  </g>
  <g clip-path="url(#fig-edb47e97672e4fb095248782ef2b3beb-element-5)" id="fig-edb47e97672e4fb095248782ef2b3beb-element-4">
    <g pointer-events="visible" opacity="1" fill="none" stroke="none" class="guide background" id="fig-edb47e97672e4fb095248782ef2b3beb-element-6">
      <rect x="20.31" y="5" width="127.09" height="51.91"/>
    </g>
    <g class="guide ygridlines xfixed" stroke-dasharray="0.5,0.5" stroke-width="0.2" stroke="#D0D0E0" id="fig-edb47e97672e4fb095248782ef2b3beb-element-7">
      <path fill="none" d="M20.31,54.92 L 147.4 54.92"/>
      <path fill="none" d="M20.31,38.94 L 147.4 38.94"/>
      <path fill="none" d="M20.31,22.97 L 147.4 22.97"/>
      <path fill="none" d="M20.31,7 L 147.4 7"/>
    </g>
    <g class="guide xgridlines yfixed" stroke-dasharray="0.5,0.5" stroke-width="0.2" stroke="#D0D0E0" id="fig-edb47e97672e4fb095248782ef2b3beb-element-8">
      <path fill="none" d="M22.31,5 L 22.31 56.91"/>
      <path fill="none" d="M83.85,5 L 83.85 56.91"/>
      <path fill="none" d="M145.4,5 L 145.4 56.91"/>
    </g>
    <g class="plotpanel" id="fig-edb47e97672e4fb095248782ef2b3beb-element-9">
      <g class="geometry" id="fig-edb47e97672e4fb095248782ef2b3beb-element-10">
        <g class="color_RGB{Float32}(0.0f0,0.74736935f0,1.0f0)" stroke="#FFFFFF" stroke-width="0.3" fill="#00BFFF" id="fig-edb47e97672e4fb095248782ef2b3beb-element-11">
          <circle cx="22.61" cy="7.2" r="0.9"/>
          <circle cx="22.92" cy="7.78" r="0.9"/>
          <circle cx="23.23" cy="8.74" r="0.9"/>
          <circle cx="23.54" cy="10.05" r="0.9"/>
          <circle cx="23.84" cy="11.68" r="0.9"/>
          <circle cx="24.15" cy="13.58" r="0.9"/>
          <circle cx="24.46" cy="15.72" r="0.9"/>
          <circle cx="24.77" cy="18.04" r="0.9"/>
          <circle cx="25.07" cy="20.47" r="0.9"/>
          <circle cx="25.38" cy="22.97" r="0.9"/>
          <circle cx="25.69" cy="25.47" r="0.9"/>
          <circle cx="26" cy="27.91" r="0.9"/>
          <circle cx="26.31" cy="30.22" r="0.9"/>
          <circle cx="26.61" cy="32.36" r="0.9"/>
          <circle cx="26.92" cy="34.27" r="0.9"/>
          <circle cx="27.23" cy="35.89" r="0.9"/>
          <circle cx="27.54" cy="37.2" r="0.9"/>
          <circle cx="27.84" cy="38.16" r="0.9"/>
          <circle cx="28.15" cy="38.75" r="0.9"/>
          <circle cx="28.46" cy="38.94" r="0.9"/>
          <circle cx="28.77" cy="38.75" r="0.9"/>
          <circle cx="29.08" cy="38.16" r="0.9"/>
          <circle cx="29.38" cy="37.2" r="0.9"/>
          <circle cx="29.69" cy="35.89" r="0.9"/>
          <circle cx="30" cy="34.27" r="0.9"/>
          <circle cx="30.31" cy="32.36" r="0.9"/>
          <circle cx="30.61" cy="30.22" r="0.9"/>
          <circle cx="30.92" cy="27.91" r="0.9"/>
          <circle cx="31.23" cy="25.47" r="0.9"/>
          <circle cx="31.54" cy="22.97" r="0.9"/>
          <circle cx="31.84" cy="20.47" r="0.9"/>
          <circle cx="32.15" cy="18.04" r="0.9"/>
          <circle cx="32.46" cy="15.72" r="0.9"/>
          <circle cx="32.77" cy="13.58" r="0.9"/>
          <circle cx="33.08" cy="11.68" r="0.9"/>
          <circle cx="33.38" cy="10.05" r="0.9"/>
          <circle cx="33.69" cy="8.74" r="0.9"/>
          <circle cx="34" cy="7.78" r="0.9"/>
          <circle cx="34.31" cy="7.2" r="0.9"/>
          <circle cx="34.61" cy="7" r="0.9"/>
          <circle cx="34.92" cy="7.2" r="0.9"/>
          <circle cx="35.23" cy="7.78" r="0.9"/>
          <circle cx="35.54" cy="8.74" r="0.9"/>
          <circle cx="35.85" cy="10.05" r="0.9"/>
          <circle cx="36.15" cy="11.68" r="0.9"/>
          <circle cx="36.46" cy="13.58" r="0.9"/>
          <circle cx="36.77" cy="15.72" r="0.9"/>
          <circle cx="37.08" cy="18.04" r="0.9"/>
          <circle cx="37.38" cy="20.47" r="0.9"/>
          <circle cx="37.69" cy="22.97" r="0.9"/>
          <circle cx="38" cy="25.47" r="0.9"/>
          <circle cx="38.31" cy="27.91" r="0.9"/>
          <circle cx="38.62" cy="30.22" r="0.9"/>
          <circle cx="38.92" cy="32.36" r="0.9"/>
          <circle cx="39.23" cy="34.27" r="0.9"/>
          <circle cx="39.54" cy="35.89" r="0.9"/>
          <circle cx="39.85" cy="37.2" r="0.9"/>
          <circle cx="40.15" cy="38.16" r="0.9"/>
          <circle cx="40.46" cy="38.75" r="0.9"/>
          <circle cx="40.77" cy="38.94" r="0.9"/>
          <circle cx="41.08" cy="38.75" r="0.9"/>
          <circle cx="41.38" cy="38.16" r="0.9"/>
          <circle cx="41.69" cy="37.2" r="0.9"/>
          <circle cx="42" cy="35.89" r="0.9"/>
          <circle cx="42.31" cy="34.27" r="0.9"/>
          <circle cx="42.62" cy="32.36" r="0.9"/>
          <circle cx="42.92" cy="30.22" r="0.9"/>
          <circle cx="43.23" cy="27.91" r="0.9"/>
          <circle cx="43.54" cy="25.47" r="0.9"/>
          <circle cx="43.85" cy="22.97" r="0.9"/>
          <circle cx="44.15" cy="20.47" r="0.9"/>
          <circle cx="44.46" cy="18.04" r="0.9"/>
          <circle cx="44.77" cy="15.72" r="0.9"/>
          <circle cx="45.08" cy="13.58" r="0.9"/>
          <circle cx="45.39" cy="11.68" r="0.9"/>
          <circle cx="45.69" cy="10.05" r="0.9"/>
          <circle cx="46" cy="8.74" r="0.9"/>
          <circle cx="46.31" cy="7.78" r="0.9"/>
          <circle cx="46.62" cy="7.2" r="0.9"/>
          <circle cx="46.92" cy="7" r="0.9"/>
          <circle cx="47.23" cy="7.2" r="0.9"/>
          <circle cx="47.54" cy="7.78" r="0.9"/>
          <circle cx="47.85" cy="8.74" r="0.9"/>
          <circle cx="48.15" cy="10.05" r="0.9"/>
          <circle cx="48.46" cy="11.68" r="0.9"/>
          <circle cx="48.77" cy="13.58" r="0.9"/>
          <circle cx="49.08" cy="15.72" r="0.9"/>
          <circle cx="49.39" cy="18.04" r="0.9"/>
          <circle cx="49.69" cy="20.47" r="0.9"/>
          <circle cx="50" cy="22.97" r="0.9"/>
          <circle cx="50.31" cy="25.47" r="0.9"/>
          <circle cx="50.62" cy="27.91" r="0.9"/>
          <circle cx="50.92" cy="30.22" r="0.9"/>
          <circle cx="51.23" cy="32.36" r="0.9"/>
          <circle cx="51.54" cy="34.27" r="0.9"/>
          <circle cx="51.85" cy="35.89" r="0.9"/>
          <circle cx="52.16" cy="37.2" r="0.9"/>
          <circle cx="52.46" cy="38.16" r="0.9"/>
          <circle cx="52.77" cy="38.75" r="0.9"/>
          <circle cx="53.08" cy="38.94" r="0.9"/>
          <circle cx="53.39" cy="38.75" r="0.9"/>
          <circle cx="53.69" cy="38.16" r="0.9"/>
          <circle cx="54" cy="37.2" r="0.9"/>
          <circle cx="54.31" cy="35.89" r="0.9"/>
          <circle cx="54.62" cy="34.27" r="0.9"/>
          <circle cx="54.93" cy="32.36" r="0.9"/>
          <circle cx="55.23" cy="30.22" r="0.9"/>
          <circle cx="55.54" cy="27.91" r="0.9"/>
          <circle cx="55.85" cy="25.47" r="0.9"/>
          <circle cx="56.16" cy="22.97" r="0.9"/>
          <circle cx="56.46" cy="20.47" r="0.9"/>
          <circle cx="56.77" cy="18.04" r="0.9"/>
          <circle cx="57.08" cy="15.72" r="0.9"/>
          <circle cx="57.39" cy="13.58" r="0.9"/>
          <circle cx="57.69" cy="11.68" r="0.9"/>
          <circle cx="58" cy="10.05" r="0.9"/>
          <circle cx="58.31" cy="8.74" r="0.9"/>
          <circle cx="58.62" cy="7.78" r="0.9"/>
          <circle cx="58.93" cy="7.2" r="0.9"/>
          <circle cx="59.23" cy="7" r="0.9"/>
          <circle cx="59.54" cy="7.2" r="0.9"/>
          <circle cx="59.85" cy="7.78" r="0.9"/>
          <circle cx="60.16" cy="8.74" r="0.9"/>
          <circle cx="60.46" cy="10.05" r="0.9"/>
          <circle cx="60.77" cy="11.68" r="0.9"/>
          <circle cx="61.08" cy="13.58" r="0.9"/>
          <circle cx="61.39" cy="15.72" r="0.9"/>
          <circle cx="61.7" cy="18.04" r="0.9"/>
          <circle cx="62" cy="20.47" r="0.9"/>
          <circle cx="62.31" cy="22.97" r="0.9"/>
          <circle cx="62.62" cy="25.47" r="0.9"/>
          <circle cx="62.93" cy="27.91" r="0.9"/>
          <circle cx="63.23" cy="30.22" r="0.9"/>
          <circle cx="63.54" cy="32.36" r="0.9"/>
          <circle cx="63.85" cy="34.27" r="0.9"/>
          <circle cx="64.16" cy="35.89" r="0.9"/>
          <circle cx="64.47" cy="37.2" r="0.9"/>
          <circle cx="64.77" cy="38.16" r="0.9"/>
          <circle cx="65.08" cy="38.75" r="0.9"/>
          <circle cx="65.39" cy="38.94" r="0.9"/>
          <circle cx="65.7" cy="38.75" r="0.9"/>
          <circle cx="66" cy="38.16" r="0.9"/>
          <circle cx="66.31" cy="37.2" r="0.9"/>
          <circle cx="66.62" cy="35.89" r="0.9"/>
          <circle cx="66.93" cy="34.27" r="0.9"/>
          <circle cx="67.23" cy="32.36" r="0.9"/>
          <circle cx="67.54" cy="30.22" r="0.9"/>
          <circle cx="67.85" cy="27.91" r="0.9"/>
          <circle cx="68.16" cy="25.47" r="0.9"/>
          <circle cx="68.47" cy="22.97" r="0.9"/>
          <circle cx="68.77" cy="20.47" r="0.9"/>
          <circle cx="69.08" cy="18.04" r="0.9"/>
          <circle cx="69.39" cy="15.72" r="0.9"/>
          <circle cx="69.7" cy="13.58" r="0.9"/>
          <circle cx="70" cy="11.68" r="0.9"/>
          <circle cx="70.31" cy="10.05" r="0.9"/>
          <circle cx="70.62" cy="8.74" r="0.9"/>
          <circle cx="70.93" cy="7.78" r="0.9"/>
          <circle cx="71.24" cy="7.2" r="0.9"/>
          <circle cx="71.54" cy="7" r="0.9"/>
          <circle cx="71.85" cy="7.2" r="0.9"/>
          <circle cx="72.16" cy="7.78" r="0.9"/>
          <circle cx="72.47" cy="8.74" r="0.9"/>
          <circle cx="72.77" cy="10.05" r="0.9"/>
          <circle cx="73.08" cy="11.68" r="0.9"/>
          <circle cx="73.39" cy="13.58" r="0.9"/>
          <circle cx="73.7" cy="15.72" r="0.9"/>
          <circle cx="74" cy="18.04" r="0.9"/>
          <circle cx="74.31" cy="20.47" r="0.9"/>
          <circle cx="74.62" cy="22.97" r="0.9"/>
          <circle cx="74.93" cy="25.47" r="0.9"/>
          <circle cx="75.24" cy="27.91" r="0.9"/>
          <circle cx="75.54" cy="30.22" r="0.9"/>
          <circle cx="75.85" cy="32.36" r="0.9"/>
          <circle cx="76.16" cy="34.27" r="0.9"/>
          <circle cx="76.47" cy="35.89" r="0.9"/>
          <circle cx="76.77" cy="37.2" r="0.9"/>
          <circle cx="77.08" cy="38.16" r="0.9"/>
          <circle cx="77.39" cy="38.75" r="0.9"/>
          <circle cx="77.7" cy="38.94" r="0.9"/>
          <circle cx="78.01" cy="38.75" r="0.9"/>
          <circle cx="78.31" cy="38.16" r="0.9"/>
          <circle cx="78.62" cy="37.2" r="0.9"/>
          <circle cx="78.93" cy="35.89" r="0.9"/>
          <circle cx="79.24" cy="34.27" r="0.9"/>
          <circle cx="79.54" cy="32.36" r="0.9"/>
          <circle cx="79.85" cy="30.22" r="0.9"/>
          <circle cx="80.16" cy="27.91" r="0.9"/>
          <circle cx="80.47" cy="25.47" r="0.9"/>
          <circle cx="80.78" cy="22.97" r="0.9"/>
          <circle cx="81.08" cy="20.47" r="0.9"/>
          <circle cx="81.39" cy="18.04" r="0.9"/>
          <circle cx="81.7" cy="15.72" r="0.9"/>
          <circle cx="82.01" cy="13.58" r="0.9"/>
          <circle cx="82.31" cy="11.68" r="0.9"/>
          <circle cx="82.62" cy="10.05" r="0.9"/>
          <circle cx="82.93" cy="8.74" r="0.9"/>
          <circle cx="83.24" cy="7.78" r="0.9"/>
          <circle cx="83.54" cy="7.2" r="0.9"/>
          <circle cx="83.85" cy="7" r="0.9"/>
          <circle cx="84.16" cy="7.2" r="0.9"/>
          <circle cx="84.47" cy="7.78" r="0.9"/>
          <circle cx="84.78" cy="8.74" r="0.9"/>
          <circle cx="85.08" cy="10.05" r="0.9"/>
          <circle cx="85.39" cy="11.68" r="0.9"/>
          <circle cx="85.7" cy="13.58" r="0.9"/>
          <circle cx="86.01" cy="15.72" r="0.9"/>
          <circle cx="86.31" cy="18.04" r="0.9"/>
          <circle cx="86.62" cy="20.47" r="0.9"/>
          <circle cx="86.93" cy="22.97" r="0.9"/>
          <circle cx="87.24" cy="25.47" r="0.9"/>
          <circle cx="87.55" cy="27.91" r="0.9"/>
          <circle cx="87.85" cy="30.22" r="0.9"/>
          <circle cx="88.16" cy="32.36" r="0.9"/>
          <circle cx="88.47" cy="34.27" r="0.9"/>
          <circle cx="88.78" cy="35.89" r="0.9"/>
          <circle cx="89.08" cy="37.2" r="0.9"/>
          <circle cx="89.39" cy="38.16" r="0.9"/>
          <circle cx="89.7" cy="38.75" r="0.9"/>
          <circle cx="90.01" cy="38.94" r="0.9"/>
          <circle cx="90.31" cy="38.75" r="0.9"/>
          <circle cx="90.62" cy="38.16" r="0.9"/>
          <circle cx="90.93" cy="37.2" r="0.9"/>
          <circle cx="91.24" cy="35.89" r="0.9"/>
          <circle cx="91.55" cy="34.27" r="0.9"/>
          <circle cx="91.85" cy="32.36" r="0.9"/>
          <circle cx="92.16" cy="30.22" r="0.9"/>
          <circle cx="92.47" cy="27.91" r="0.9"/>
          <circle cx="92.78" cy="25.47" r="0.9"/>
          <circle cx="93.08" cy="22.97" r="0.9"/>
          <circle cx="93.39" cy="20.47" r="0.9"/>
          <circle cx="93.7" cy="18.04" r="0.9"/>
          <circle cx="94.01" cy="15.72" r="0.9"/>
          <circle cx="94.32" cy="13.58" r="0.9"/>
          <circle cx="94.62" cy="11.68" r="0.9"/>
          <circle cx="94.93" cy="10.05" r="0.9"/>
          <circle cx="95.24" cy="8.74" r="0.9"/>
          <circle cx="95.55" cy="7.78" r="0.9"/>
          <circle cx="95.85" cy="7.2" r="0.9"/>
          <circle cx="96.16" cy="7" r="0.9"/>
          <circle cx="96.47" cy="7.2" r="0.9"/>
          <circle cx="96.78" cy="7.78" r="0.9"/>
          <circle cx="97.09" cy="8.74" r="0.9"/>
          <circle cx="97.39" cy="10.05" r="0.9"/>
          <circle cx="97.7" cy="11.68" r="0.9"/>
          <circle cx="98.01" cy="13.58" r="0.9"/>
          <circle cx="98.32" cy="15.72" r="0.9"/>
          <circle cx="98.62" cy="18.04" r="0.9"/>
          <circle cx="98.93" cy="20.47" r="0.9"/>
          <circle cx="99.24" cy="22.97" r="0.9"/>
          <circle cx="99.55" cy="25.47" r="0.9"/>
          <circle cx="99.85" cy="27.91" r="0.9"/>
          <circle cx="100.16" cy="30.22" r="0.9"/>
          <circle cx="100.47" cy="32.36" r="0.9"/>
          <circle cx="100.78" cy="34.27" r="0.9"/>
          <circle cx="101.09" cy="35.89" r="0.9"/>
          <circle cx="101.39" cy="37.2" r="0.9"/>
          <circle cx="101.7" cy="38.16" r="0.9"/>
          <circle cx="102.01" cy="38.75" r="0.9"/>
          <circle cx="102.32" cy="38.94" r="0.9"/>
          <circle cx="102.62" cy="38.75" r="0.9"/>
          <circle cx="102.93" cy="38.16" r="0.9"/>
          <circle cx="103.24" cy="37.2" r="0.9"/>
          <circle cx="103.55" cy="35.89" r="0.9"/>
          <circle cx="103.86" cy="34.27" r="0.9"/>
          <circle cx="104.16" cy="32.36" r="0.9"/>
          <circle cx="104.47" cy="30.22" r="0.9"/>
          <circle cx="104.78" cy="27.91" r="0.9"/>
          <circle cx="105.09" cy="25.47" r="0.9"/>
          <circle cx="105.39" cy="22.97" r="0.9"/>
          <circle cx="105.7" cy="20.47" r="0.9"/>
          <circle cx="106.01" cy="18.04" r="0.9"/>
          <circle cx="106.32" cy="15.72" r="0.9"/>
          <circle cx="106.63" cy="13.58" r="0.9"/>
          <circle cx="106.93" cy="11.68" r="0.9"/>
          <circle cx="107.24" cy="10.05" r="0.9"/>
          <circle cx="107.55" cy="8.74" r="0.9"/>
          <circle cx="107.86" cy="7.78" r="0.9"/>
          <circle cx="108.16" cy="7.2" r="0.9"/>
          <circle cx="108.47" cy="7" r="0.9"/>
          <circle cx="108.78" cy="7.2" r="0.9"/>
          <circle cx="109.09" cy="7.78" r="0.9"/>
          <circle cx="109.39" cy="8.74" r="0.9"/>
          <circle cx="109.7" cy="10.05" r="0.9"/>
          <circle cx="110.01" cy="11.68" r="0.9"/>
          <circle cx="110.32" cy="13.58" r="0.9"/>
          <circle cx="110.63" cy="15.72" r="0.9"/>
          <circle cx="110.93" cy="18.04" r="0.9"/>
          <circle cx="111.24" cy="20.47" r="0.9"/>
          <circle cx="111.55" cy="22.97" r="0.9"/>
          <circle cx="111.86" cy="25.47" r="0.9"/>
          <circle cx="112.16" cy="27.91" r="0.9"/>
          <circle cx="112.47" cy="30.22" r="0.9"/>
          <circle cx="112.78" cy="32.36" r="0.9"/>
          <circle cx="113.09" cy="34.27" r="0.9"/>
          <circle cx="113.4" cy="35.89" r="0.9"/>
          <circle cx="113.7" cy="37.2" r="0.9"/>
          <circle cx="114.01" cy="38.16" r="0.9"/>
          <circle cx="114.32" cy="38.75" r="0.9"/>
          <circle cx="114.63" cy="38.94" r="0.9"/>
          <circle cx="114.93" cy="38.75" r="0.9"/>
          <circle cx="115.24" cy="38.16" r="0.9"/>
          <circle cx="115.55" cy="37.2" r="0.9"/>
          <circle cx="115.86" cy="35.89" r="0.9"/>
          <circle cx="116.16" cy="34.27" r="0.9"/>
          <circle cx="116.47" cy="32.36" r="0.9"/>
          <circle cx="116.78" cy="30.22" r="0.9"/>
          <circle cx="117.09" cy="27.91" r="0.9"/>
          <circle cx="117.4" cy="25.47" r="0.9"/>
          <circle cx="117.7" cy="22.97" r="0.9"/>
          <circle cx="118.01" cy="20.47" r="0.9"/>
          <circle cx="118.32" cy="18.04" r="0.9"/>
          <circle cx="118.63" cy="15.72" r="0.9"/>
          <circle cx="118.93" cy="13.58" r="0.9"/>
          <circle cx="119.24" cy="11.68" r="0.9"/>
          <circle cx="119.55" cy="10.05" r="0.9"/>
          <circle cx="119.86" cy="8.74" r="0.9"/>
          <circle cx="120.17" cy="7.78" r="0.9"/>
          <circle cx="120.47" cy="7.2" r="0.9"/>
          <circle cx="120.78" cy="7" r="0.9"/>
          <circle cx="121.09" cy="7.2" r="0.9"/>
          <circle cx="121.4" cy="7.78" r="0.9"/>
          <circle cx="121.7" cy="8.74" r="0.9"/>
          <circle cx="122.01" cy="10.05" r="0.9"/>
          <circle cx="122.32" cy="11.68" r="0.9"/>
          <circle cx="122.63" cy="13.58" r="0.9"/>
          <circle cx="122.94" cy="15.72" r="0.9"/>
          <circle cx="123.24" cy="18.04" r="0.9"/>
          <circle cx="123.55" cy="20.47" r="0.9"/>
          <circle cx="123.86" cy="22.97" r="0.9"/>
          <circle cx="124.17" cy="25.47" r="0.9"/>
          <circle cx="124.47" cy="27.91" r="0.9"/>
          <circle cx="124.78" cy="30.22" r="0.9"/>
          <circle cx="125.09" cy="32.36" r="0.9"/>
          <circle cx="125.4" cy="34.27" r="0.9"/>
          <circle cx="125.7" cy="35.89" r="0.9"/>
          <circle cx="126.01" cy="37.2" r="0.9"/>
          <circle cx="126.32" cy="38.16" r="0.9"/>
          <circle cx="126.63" cy="38.75" r="0.9"/>
          <circle cx="126.94" cy="38.94" r="0.9"/>
          <circle cx="127.24" cy="38.75" r="0.9"/>
          <circle cx="127.55" cy="38.16" r="0.9"/>
          <circle cx="127.86" cy="37.2" r="0.9"/>
          <circle cx="128.17" cy="35.89" r="0.9"/>
          <circle cx="128.47" cy="34.27" r="0.9"/>
          <circle cx="128.78" cy="32.36" r="0.9"/>
          <circle cx="129.09" cy="30.22" r="0.9"/>
          <circle cx="129.4" cy="27.91" r="0.9"/>
          <circle cx="129.71" cy="25.47" r="0.9"/>
          <circle cx="130.01" cy="22.97" r="0.9"/>
          <circle cx="130.32" cy="20.47" r="0.9"/>
          <circle cx="130.63" cy="18.04" r="0.9"/>
          <circle cx="130.94" cy="15.72" r="0.9"/>
          <circle cx="131.24" cy="13.58" r="0.9"/>
          <circle cx="131.55" cy="11.68" r="0.9"/>
          <circle cx="131.86" cy="10.05" r="0.9"/>
          <circle cx="132.17" cy="8.74" r="0.9"/>
          <circle cx="132.48" cy="7.78" r="0.9"/>
          <circle cx="132.78" cy="7.2" r="0.9"/>
          <circle cx="133.09" cy="7" r="0.9"/>
          <circle cx="133.4" cy="7.2" r="0.9"/>
          <circle cx="133.71" cy="7.78" r="0.9"/>
          <circle cx="134.01" cy="8.74" r="0.9"/>
          <circle cx="134.32" cy="10.05" r="0.9"/>
          <circle cx="134.63" cy="11.68" r="0.9"/>
          <circle cx="134.94" cy="13.58" r="0.9"/>
          <circle cx="135.24" cy="15.72" r="0.9"/>
          <circle cx="135.55" cy="18.04" r="0.9"/>
          <circle cx="135.86" cy="20.47" r="0.9"/>
          <circle cx="136.17" cy="22.97" r="0.9"/>
          <circle cx="136.48" cy="25.47" r="0.9"/>
          <circle cx="136.78" cy="27.91" r="0.9"/>
          <circle cx="137.09" cy="30.22" r="0.9"/>
          <circle cx="137.4" cy="32.36" r="0.9"/>
          <circle cx="137.71" cy="34.27" r="0.9"/>
          <circle cx="138.01" cy="35.89" r="0.9"/>
          <circle cx="138.32" cy="37.2" r="0.9"/>
          <circle cx="138.63" cy="38.16" r="0.9"/>
          <circle cx="138.94" cy="38.75" r="0.9"/>
          <circle cx="139.25" cy="38.94" r="0.9"/>
          <circle cx="139.55" cy="38.75" r="0.9"/>
          <circle cx="139.86" cy="38.16" r="0.9"/>
          <circle cx="140.17" cy="37.2" r="0.9"/>
          <circle cx="140.48" cy="35.89" r="0.9"/>
          <circle cx="140.78" cy="34.27" r="0.9"/>
          <circle cx="141.09" cy="32.36" r="0.9"/>
          <circle cx="141.4" cy="30.22" r="0.9"/>
          <circle cx="141.71" cy="27.91" r="0.9"/>
          <circle cx="142.01" cy="25.47" r="0.9"/>
          <circle cx="142.32" cy="22.97" r="0.9"/>
          <circle cx="142.63" cy="20.47" r="0.9"/>
          <circle cx="142.94" cy="18.04" r="0.9"/>
          <circle cx="143.25" cy="15.72" r="0.9"/>
          <circle cx="143.55" cy="13.58" r="0.9"/>
          <circle cx="143.86" cy="11.68" r="0.9"/>
          <circle cx="144.17" cy="10.05" r="0.9"/>
          <circle cx="144.48" cy="8.74" r="0.9"/>
          <circle cx="144.78" cy="7.78" r="0.9"/>
          <circle cx="145.09" cy="7.2" r="0.9"/>
        </g>
      </g>
    </g>
  </g>
  <g class="guide ylabels" font-size="2.82" font-family="'PT Sans Caption','Helvetica Neue','Helvetica',sans-serif" fill="#6C606B" id="fig-edb47e97672e4fb095248782ef2b3beb-element-12">
    <text x="19.31" y="54.92" text-anchor="end" dy="0.35em">0.75</text>
    <text x="19.31" y="38.94" text-anchor="end" dy="0.35em">0.80</text>
    <text x="19.31" y="22.97" text-anchor="end" dy="0.35em">0.85</text>
    <text x="19.31" y="7" text-anchor="end" dy="0.35em">0.90</text>
  </g>
  <g font-size="3.88" font-family="'PT Sans','Helvetica Neue','Helvetica',sans-serif" fill="#564A55" stroke="none" id="fig-edb47e97672e4fb095248782ef2b3beb-element-13">
    <text x="8.81" y="28.96" text-anchor="middle" dy="0.35em" transform="rotate(-90, 8.81, 30.96)">Optimal p0</text>
  </g>
</g>
<defs>
<clipPath id="fig-edb47e97672e4fb095248782ef2b3beb-element-5">
  <path d="M20.31,5 L 147.4 5 147.4 56.91 20.31 56.91" />
</clipPath
></defs>
</svg>
